M48
; DRILL file {KiCad 8.0.5} date 2024-10-18T19:54:09+0200
; FORMAT={-:-/ absolute / inch / decimal}
; #@! TF.CreationDate,2024-10-18T19:54:09+02:00
; #@! TF.GenerationSoftware,Kicad,Pcbnew,8.0.5
; #@! TF.FileFunction,Plated,1,2,PTH
FMAT,2
INCH
; #@! TA.AperFunction,Plated,PTH,ComponentDrill
T1C0.0394
%
G90
G05
T1
X4.1236Y-2.337
X4.1236Y-2.437
X4.1236Y-2.537
X4.1236Y-2.637
X4.1236Y-2.737
X4.1236Y-2.837
X4.1236Y-2.937
X4.1236Y-3.037
X4.1236Y-3.137
X4.1236Y-3.237
X4.1236Y-3.337
X4.1236Y-3.437
X4.1236Y-3.537
X4.1236Y-3.637
X4.1236Y-3.737
X4.1236Y-3.837
X4.1236Y-3.937
X5.0098Y-2.4492
X5.0098Y-2.5492
X5.1098Y-2.4492
X5.1098Y-2.5492
X6.0236Y-2.0969
X6.0236Y-2.1969
X6.0236Y-2.2969
X6.0236Y-2.3969
X6.0236Y-2.4969
X6.0236Y-2.5969
X6.0236Y-2.6969
X6.0236Y-2.7969
X6.0236Y-2.8969
X6.0236Y-2.9969
X6.0236Y-3.0969
X6.0236Y-3.2567
X6.0236Y-3.3567
X6.0236Y-3.4567
X6.0236Y-3.5567
X6.0236Y-3.6567
X6.0236Y-3.7567
X6.0236Y-3.8567
X6.0236Y-3.9567
M30
