%TF.GenerationSoftware,KiCad,Pcbnew,8.0.5*%
%TF.CreationDate,2024-10-18T19:53:41+02:00*%
%TF.ProjectId,p_ytka,70427974-6b61-42e6-9b69-6361645f7063,rev?*%
%TF.SameCoordinates,Original*%
%TF.FileFunction,Soldermask,Top*%
%TF.FilePolarity,Negative*%
%FSLAX46Y46*%
G04 Gerber Fmt 4.6, Leading zero omitted, Abs format (unit mm)*
G04 Created by KiCad (PCBNEW 8.0.5) date 2024-10-18 19:53:41*
%MOMM*%
%LPD*%
G01*
G04 APERTURE LIST*
G04 Aperture macros list*
%AMRoundRect*
0 Rectangle with rounded corners*
0 $1 Rounding radius*
0 $2 $3 $4 $5 $6 $7 $8 $9 X,Y pos of 4 corners*
0 Add a 4 corners polygon primitive as box body*
4,1,4,$2,$3,$4,$5,$6,$7,$8,$9,$2,$3,0*
0 Add four circle primitives for the rounded corners*
1,1,$1+$1,$2,$3*
1,1,$1+$1,$4,$5*
1,1,$1+$1,$6,$7*
1,1,$1+$1,$8,$9*
0 Add four rect primitives between the rounded corners*
20,1,$1+$1,$2,$3,$4,$5,0*
20,1,$1+$1,$4,$5,$6,$7,0*
20,1,$1+$1,$6,$7,$8,$9,0*
20,1,$1+$1,$8,$9,$2,$3,0*%
G04 Aperture macros list end*
%ADD10RoundRect,0.250000X0.625000X-0.375000X0.625000X0.375000X-0.625000X0.375000X-0.625000X-0.375000X0*%
%ADD11RoundRect,0.250000X-0.625000X0.312500X-0.625000X-0.312500X0.625000X-0.312500X0.625000X0.312500X0*%
%ADD12O,1.700000X1.700000*%
%ADD13R,1.700000X1.700000*%
G04 APERTURE END LIST*
D10*
%TO.C,D1*%
X127500000Y-82900000D03*
X127500000Y-80100000D03*
%TD*%
D11*
%TO.C,R1*%
X127500000Y-69820000D03*
X127500000Y-72745000D03*
%TD*%
D12*
%TO.C,REF\u002A\u002A*%
X104740000Y-100000000D03*
X104740000Y-97460000D03*
X104740000Y-94920000D03*
X104740000Y-92380000D03*
X104740000Y-89840000D03*
X104740000Y-87300000D03*
X104740000Y-84760000D03*
X104740000Y-82220000D03*
X104740000Y-79680000D03*
X104740000Y-77140000D03*
X104740000Y-74600000D03*
X104740000Y-72060000D03*
X104740000Y-69520000D03*
X104740000Y-66980000D03*
X104740000Y-64440000D03*
X104740000Y-61900000D03*
D13*
X104740000Y-59360000D03*
%TD*%
%TO.C,REF\u002A\u002A*%
X153000000Y-82720000D03*
D12*
X153000000Y-85260000D03*
X153000000Y-87800000D03*
X153000000Y-90340000D03*
X153000000Y-92880000D03*
X153000000Y-95420000D03*
X153000000Y-97960000D03*
X153000000Y-100500000D03*
%TD*%
D13*
%TO.C,REF\u002A\u002A*%
X127250000Y-62210000D03*
D12*
X127250000Y-64750000D03*
X129790000Y-62210000D03*
X129790000Y-64750000D03*
%TD*%
D13*
%TO.C,REF\u002A\u002A*%
X153000000Y-53260000D03*
D12*
X153000000Y-55800000D03*
X153000000Y-58340000D03*
X153000000Y-60880000D03*
X153000000Y-63420000D03*
X153000000Y-65960000D03*
X153000000Y-68500000D03*
X153000000Y-71040000D03*
X153000000Y-73580000D03*
X153000000Y-76120000D03*
X153000000Y-78660000D03*
%TD*%
M02*
