%TF.GenerationSoftware,KiCad,Pcbnew,8.0.5*%
%TF.CreationDate,2024-10-18T19:53:41+02:00*%
%TF.ProjectId,p_ytka,70427974-6b61-42e6-9b69-6361645f7063,rev?*%
%TF.SameCoordinates,Original*%
%TF.FileFunction,Soldermask,Bot*%
%TF.FilePolarity,Negative*%
%FSLAX46Y46*%
G04 Gerber Fmt 4.6, Leading zero omitted, Abs format (unit mm)*
G04 Created by KiCad (PCBNEW 8.0.5) date 2024-10-18 19:53:41*
%MOMM*%
%LPD*%
G01*
G04 APERTURE LIST*
%ADD10O,1.700000X1.700000*%
%ADD11R,1.700000X1.700000*%
G04 APERTURE END LIST*
D10*
%TO.C,REF\u002A\u002A*%
X104740000Y-100000000D03*
X104740000Y-97460000D03*
X104740000Y-94920000D03*
X104740000Y-92380000D03*
X104740000Y-89840000D03*
X104740000Y-87300000D03*
X104740000Y-84760000D03*
X104740000Y-82220000D03*
X104740000Y-79680000D03*
X104740000Y-77140000D03*
X104740000Y-74600000D03*
X104740000Y-72060000D03*
X104740000Y-69520000D03*
X104740000Y-66980000D03*
X104740000Y-64440000D03*
X104740000Y-61900000D03*
D11*
X104740000Y-59360000D03*
%TD*%
%TO.C,REF\u002A\u002A*%
X153000000Y-82720000D03*
D10*
X153000000Y-85260000D03*
X153000000Y-87800000D03*
X153000000Y-90340000D03*
X153000000Y-92880000D03*
X153000000Y-95420000D03*
X153000000Y-97960000D03*
X153000000Y-100500000D03*
%TD*%
D11*
%TO.C,REF\u002A\u002A*%
X127250000Y-62210000D03*
D10*
X127250000Y-64750000D03*
X129790000Y-62210000D03*
X129790000Y-64750000D03*
%TD*%
D11*
%TO.C,REF\u002A\u002A*%
X153000000Y-53260000D03*
D10*
X153000000Y-55800000D03*
X153000000Y-58340000D03*
X153000000Y-60880000D03*
X153000000Y-63420000D03*
X153000000Y-65960000D03*
X153000000Y-68500000D03*
X153000000Y-71040000D03*
X153000000Y-73580000D03*
X153000000Y-76120000D03*
X153000000Y-78660000D03*
%TD*%
M02*
