%TF.GenerationSoftware,KiCad,Pcbnew,8.0.5*%
%TF.CreationDate,2024-10-30T21:55:18+01:00*%
%TF.ProjectId,p_ytka,70427974-6b61-42e6-9b69-6361645f7063,rev?*%
%TF.SameCoordinates,Original*%
%TF.FileFunction,Soldermask,Bot*%
%TF.FilePolarity,Negative*%
%FSLAX46Y46*%
G04 Gerber Fmt 4.6, Leading zero omitted, Abs format (unit mm)*
G04 Created by KiCad (PCBNEW 8.0.5) date 2024-10-30 21:55:18*
%MOMM*%
%LPD*%
G01*
G04 APERTURE LIST*
%ADD10R,1.700000X1.700000*%
%ADD11O,1.700000X1.700000*%
G04 APERTURE END LIST*
D10*
%TO.C,J3*%
X137475000Y-84250000D03*
D11*
X137475000Y-86790000D03*
%TD*%
D10*
%TO.C,REF\u002A\u002A*%
X153000000Y-50500000D03*
%TD*%
%TO.C,REF\u002A\u002A*%
X104740000Y-59360000D03*
D11*
X104740000Y-61900000D03*
X104740000Y-64440000D03*
X104740000Y-66980000D03*
X104740000Y-69520000D03*
X104740000Y-72060000D03*
X104740000Y-74600000D03*
X104740000Y-77140000D03*
X104740000Y-79680000D03*
X104740000Y-82220000D03*
X104740000Y-84760000D03*
X104740000Y-87300000D03*
X104740000Y-89840000D03*
X104740000Y-92380000D03*
X104740000Y-94920000D03*
X104740000Y-97460000D03*
X104740000Y-100000000D03*
%TD*%
D10*
%TO.C,J4*%
X124460000Y-72000000D03*
D11*
X127000000Y-72000000D03*
X129540000Y-72000000D03*
%TD*%
D10*
%TO.C,J2*%
X108975000Y-51474000D03*
D11*
X111515000Y-51474000D03*
X114055000Y-51474000D03*
%TD*%
D10*
%TO.C,REF\u002A\u002A*%
X153000000Y-55730000D03*
D11*
X153000000Y-58270000D03*
X153000000Y-60810000D03*
X153000000Y-63350000D03*
X153000000Y-65890000D03*
X153000000Y-68430000D03*
X153000000Y-70970000D03*
X153000000Y-73510000D03*
X153000000Y-76050000D03*
X153000000Y-78590000D03*
%TD*%
D10*
%TO.C,REF\u002A\u002A*%
X153000000Y-82720000D03*
D11*
X153000000Y-85260000D03*
X153000000Y-87800000D03*
X153000000Y-90340000D03*
X153000000Y-92880000D03*
X153000000Y-95420000D03*
X153000000Y-97960000D03*
X153000000Y-100500000D03*
%TD*%
D10*
%TO.C,J1*%
X126960000Y-59710000D03*
D11*
X129500000Y-59710000D03*
X126960000Y-62250000D03*
X129500000Y-62250000D03*
%TD*%
M02*
