%TF.GenerationSoftware,KiCad,Pcbnew,8.0.5*%
%TF.CreationDate,2024-10-30T21:55:21+01:00*%
%TF.ProjectId,p_ytka,70427974-6b61-42e6-9b69-6361645f7063,rev?*%
%TF.SameCoordinates,Original*%
%TF.FileFunction,Drillmap*%
%TF.FilePolarity,Positive*%
%FSLAX45Y45*%
G04 Gerber Fmt 4.5, Leading zero omitted, Abs format (unit mm)*
G04 Created by KiCad (PCBNEW 8.0.5) date 2024-10-30 21:55:21*
%MOMM*%
%LPD*%
G01*
G04 APERTURE LIST*
%ADD10C,0.050000*%
%ADD11C,0.200000*%
%ADD12C,0.100000*%
G04 APERTURE END LIST*
D10*
X10250000Y-4800000D02*
X15600000Y-4800000D01*
X15600000Y-10300000D01*
X10250000Y-10300000D01*
X10250000Y-4800000D01*
D11*
D12*
X10885000Y-9085000D02*
X10915000Y-9115000D01*
X10915000Y-9085000D02*
X10885000Y-9115000D01*
X10885000Y-9631250D02*
X10915000Y-9661250D01*
X10915000Y-9631250D02*
X10885000Y-9661250D01*
X12385000Y-6485000D02*
X12415000Y-6515000D01*
X12415000Y-6485000D02*
X12385000Y-6515000D01*
X13285000Y-6235000D02*
X13315000Y-6265000D01*
X13315000Y-6235000D02*
X13285000Y-6265000D01*
X13735000Y-6235000D02*
X13765000Y-6265000D01*
X13765000Y-6235000D02*
X13735000Y-6265000D01*
X10524000Y-5936000D02*
G75*
G02*
X10424000Y-5936000I-50000J0D01*
G01*
X10424000Y-5936000D02*
G75*
G02*
X10524000Y-5936000I50000J0D01*
G01*
X10524000Y-6190000D02*
G75*
G02*
X10424000Y-6190000I-50000J0D01*
G01*
X10424000Y-6190000D02*
G75*
G02*
X10524000Y-6190000I50000J0D01*
G01*
X10524000Y-6444000D02*
G75*
G02*
X10424000Y-6444000I-50000J0D01*
G01*
X10424000Y-6444000D02*
G75*
G02*
X10524000Y-6444000I50000J0D01*
G01*
X10524000Y-6698000D02*
G75*
G02*
X10424000Y-6698000I-50000J0D01*
G01*
X10424000Y-6698000D02*
G75*
G02*
X10524000Y-6698000I50000J0D01*
G01*
X10524000Y-6952000D02*
G75*
G02*
X10424000Y-6952000I-50000J0D01*
G01*
X10424000Y-6952000D02*
G75*
G02*
X10524000Y-6952000I50000J0D01*
G01*
X10524000Y-7206000D02*
G75*
G02*
X10424000Y-7206000I-50000J0D01*
G01*
X10424000Y-7206000D02*
G75*
G02*
X10524000Y-7206000I50000J0D01*
G01*
X10524000Y-7460000D02*
G75*
G02*
X10424000Y-7460000I-50000J0D01*
G01*
X10424000Y-7460000D02*
G75*
G02*
X10524000Y-7460000I50000J0D01*
G01*
X10524000Y-7714000D02*
G75*
G02*
X10424000Y-7714000I-50000J0D01*
G01*
X10424000Y-7714000D02*
G75*
G02*
X10524000Y-7714000I50000J0D01*
G01*
X10524000Y-7968000D02*
G75*
G02*
X10424000Y-7968000I-50000J0D01*
G01*
X10424000Y-7968000D02*
G75*
G02*
X10524000Y-7968000I50000J0D01*
G01*
X10524000Y-8222000D02*
G75*
G02*
X10424000Y-8222000I-50000J0D01*
G01*
X10424000Y-8222000D02*
G75*
G02*
X10524000Y-8222000I50000J0D01*
G01*
X10524000Y-8476000D02*
G75*
G02*
X10424000Y-8476000I-50000J0D01*
G01*
X10424000Y-8476000D02*
G75*
G02*
X10524000Y-8476000I50000J0D01*
G01*
X10524000Y-8730000D02*
G75*
G02*
X10424000Y-8730000I-50000J0D01*
G01*
X10424000Y-8730000D02*
G75*
G02*
X10524000Y-8730000I50000J0D01*
G01*
X10524000Y-8984000D02*
G75*
G02*
X10424000Y-8984000I-50000J0D01*
G01*
X10424000Y-8984000D02*
G75*
G02*
X10524000Y-8984000I50000J0D01*
G01*
X10524000Y-9238000D02*
G75*
G02*
X10424000Y-9238000I-50000J0D01*
G01*
X10424000Y-9238000D02*
G75*
G02*
X10524000Y-9238000I50000J0D01*
G01*
X10524000Y-9492000D02*
G75*
G02*
X10424000Y-9492000I-50000J0D01*
G01*
X10424000Y-9492000D02*
G75*
G02*
X10524000Y-9492000I50000J0D01*
G01*
X10524000Y-9746000D02*
G75*
G02*
X10424000Y-9746000I-50000J0D01*
G01*
X10424000Y-9746000D02*
G75*
G02*
X10524000Y-9746000I50000J0D01*
G01*
X10524000Y-10000000D02*
G75*
G02*
X10424000Y-10000000I-50000J0D01*
G01*
X10424000Y-10000000D02*
G75*
G02*
X10524000Y-10000000I50000J0D01*
G01*
X10947500Y-5147400D02*
G75*
G02*
X10847500Y-5147400I-50000J0D01*
G01*
X10847500Y-5147400D02*
G75*
G02*
X10947500Y-5147400I50000J0D01*
G01*
X11201500Y-5147400D02*
G75*
G02*
X11101500Y-5147400I-50000J0D01*
G01*
X11101500Y-5147400D02*
G75*
G02*
X11201500Y-5147400I50000J0D01*
G01*
X11455500Y-5147400D02*
G75*
G02*
X11355500Y-5147400I-50000J0D01*
G01*
X11355500Y-5147400D02*
G75*
G02*
X11455500Y-5147400I50000J0D01*
G01*
X12496000Y-7200000D02*
G75*
G02*
X12396000Y-7200000I-50000J0D01*
G01*
X12396000Y-7200000D02*
G75*
G02*
X12496000Y-7200000I50000J0D01*
G01*
X12746000Y-5971000D02*
G75*
G02*
X12646000Y-5971000I-50000J0D01*
G01*
X12646000Y-5971000D02*
G75*
G02*
X12746000Y-5971000I50000J0D01*
G01*
X12746000Y-6225000D02*
G75*
G02*
X12646000Y-6225000I-50000J0D01*
G01*
X12646000Y-6225000D02*
G75*
G02*
X12746000Y-6225000I50000J0D01*
G01*
X12750000Y-7200000D02*
G75*
G02*
X12650000Y-7200000I-50000J0D01*
G01*
X12650000Y-7200000D02*
G75*
G02*
X12750000Y-7200000I50000J0D01*
G01*
X13000000Y-5971000D02*
G75*
G02*
X12900000Y-5971000I-50000J0D01*
G01*
X12900000Y-5971000D02*
G75*
G02*
X13000000Y-5971000I50000J0D01*
G01*
X13000000Y-6225000D02*
G75*
G02*
X12900000Y-6225000I-50000J0D01*
G01*
X12900000Y-6225000D02*
G75*
G02*
X13000000Y-6225000I50000J0D01*
G01*
X13004000Y-7200000D02*
G75*
G02*
X12904000Y-7200000I-50000J0D01*
G01*
X12904000Y-7200000D02*
G75*
G02*
X13004000Y-7200000I50000J0D01*
G01*
X13797500Y-8425000D02*
G75*
G02*
X13697500Y-8425000I-50000J0D01*
G01*
X13697500Y-8425000D02*
G75*
G02*
X13797500Y-8425000I50000J0D01*
G01*
X13797500Y-8679000D02*
G75*
G02*
X13697500Y-8679000I-50000J0D01*
G01*
X13697500Y-8679000D02*
G75*
G02*
X13797500Y-8679000I50000J0D01*
G01*
X15350000Y-5050000D02*
G75*
G02*
X15250000Y-5050000I-50000J0D01*
G01*
X15250000Y-5050000D02*
G75*
G02*
X15350000Y-5050000I50000J0D01*
G01*
X15350000Y-5573000D02*
G75*
G02*
X15250000Y-5573000I-50000J0D01*
G01*
X15250000Y-5573000D02*
G75*
G02*
X15350000Y-5573000I50000J0D01*
G01*
X15350000Y-5827000D02*
G75*
G02*
X15250000Y-5827000I-50000J0D01*
G01*
X15250000Y-5827000D02*
G75*
G02*
X15350000Y-5827000I50000J0D01*
G01*
X15350000Y-6081000D02*
G75*
G02*
X15250000Y-6081000I-50000J0D01*
G01*
X15250000Y-6081000D02*
G75*
G02*
X15350000Y-6081000I50000J0D01*
G01*
X15350000Y-6335000D02*
G75*
G02*
X15250000Y-6335000I-50000J0D01*
G01*
X15250000Y-6335000D02*
G75*
G02*
X15350000Y-6335000I50000J0D01*
G01*
X15350000Y-6589000D02*
G75*
G02*
X15250000Y-6589000I-50000J0D01*
G01*
X15250000Y-6589000D02*
G75*
G02*
X15350000Y-6589000I50000J0D01*
G01*
X15350000Y-6843000D02*
G75*
G02*
X15250000Y-6843000I-50000J0D01*
G01*
X15250000Y-6843000D02*
G75*
G02*
X15350000Y-6843000I50000J0D01*
G01*
X15350000Y-7097000D02*
G75*
G02*
X15250000Y-7097000I-50000J0D01*
G01*
X15250000Y-7097000D02*
G75*
G02*
X15350000Y-7097000I50000J0D01*
G01*
X15350000Y-7351000D02*
G75*
G02*
X15250000Y-7351000I-50000J0D01*
G01*
X15250000Y-7351000D02*
G75*
G02*
X15350000Y-7351000I50000J0D01*
G01*
X15350000Y-7605000D02*
G75*
G02*
X15250000Y-7605000I-50000J0D01*
G01*
X15250000Y-7605000D02*
G75*
G02*
X15350000Y-7605000I50000J0D01*
G01*
X15350000Y-7859000D02*
G75*
G02*
X15250000Y-7859000I-50000J0D01*
G01*
X15250000Y-7859000D02*
G75*
G02*
X15350000Y-7859000I50000J0D01*
G01*
X15350000Y-8272000D02*
G75*
G02*
X15250000Y-8272000I-50000J0D01*
G01*
X15250000Y-8272000D02*
G75*
G02*
X15350000Y-8272000I50000J0D01*
G01*
X15350000Y-8526000D02*
G75*
G02*
X15250000Y-8526000I-50000J0D01*
G01*
X15250000Y-8526000D02*
G75*
G02*
X15350000Y-8526000I50000J0D01*
G01*
X15350000Y-8780000D02*
G75*
G02*
X15250000Y-8780000I-50000J0D01*
G01*
X15250000Y-8780000D02*
G75*
G02*
X15350000Y-8780000I50000J0D01*
G01*
X15350000Y-9034000D02*
G75*
G02*
X15250000Y-9034000I-50000J0D01*
G01*
X15250000Y-9034000D02*
G75*
G02*
X15350000Y-9034000I50000J0D01*
G01*
X15350000Y-9288000D02*
G75*
G02*
X15250000Y-9288000I-50000J0D01*
G01*
X15250000Y-9288000D02*
G75*
G02*
X15350000Y-9288000I50000J0D01*
G01*
X15350000Y-9542000D02*
G75*
G02*
X15250000Y-9542000I-50000J0D01*
G01*
X15250000Y-9542000D02*
G75*
G02*
X15350000Y-9542000I50000J0D01*
G01*
X15350000Y-9796000D02*
G75*
G02*
X15250000Y-9796000I-50000J0D01*
G01*
X15250000Y-9796000D02*
G75*
G02*
X15350000Y-9796000I50000J0D01*
G01*
X15350000Y-10050000D02*
G75*
G02*
X15250000Y-10050000I-50000J0D01*
G01*
X15250000Y-10050000D02*
G75*
G02*
X15350000Y-10050000I50000J0D01*
G01*
D11*
X10508277Y-10613984D02*
X10508277Y-10413984D01*
X10508277Y-10413984D02*
X10555896Y-10413984D01*
X10555896Y-10413984D02*
X10584467Y-10423508D01*
X10584467Y-10423508D02*
X10603515Y-10442555D01*
X10603515Y-10442555D02*
X10613039Y-10461603D01*
X10613039Y-10461603D02*
X10622563Y-10499698D01*
X10622563Y-10499698D02*
X10622563Y-10528270D01*
X10622563Y-10528270D02*
X10613039Y-10566365D01*
X10613039Y-10566365D02*
X10603515Y-10585412D01*
X10603515Y-10585412D02*
X10584467Y-10604460D01*
X10584467Y-10604460D02*
X10555896Y-10613984D01*
X10555896Y-10613984D02*
X10508277Y-10613984D01*
X10708277Y-10613984D02*
X10708277Y-10480650D01*
X10708277Y-10518746D02*
X10717801Y-10499698D01*
X10717801Y-10499698D02*
X10727324Y-10490174D01*
X10727324Y-10490174D02*
X10746372Y-10480650D01*
X10746372Y-10480650D02*
X10765420Y-10480650D01*
X10832086Y-10613984D02*
X10832086Y-10480650D01*
X10832086Y-10413984D02*
X10822563Y-10423508D01*
X10822563Y-10423508D02*
X10832086Y-10433031D01*
X10832086Y-10433031D02*
X10841610Y-10423508D01*
X10841610Y-10423508D02*
X10832086Y-10413984D01*
X10832086Y-10413984D02*
X10832086Y-10433031D01*
X10955896Y-10613984D02*
X10936848Y-10604460D01*
X10936848Y-10604460D02*
X10927324Y-10585412D01*
X10927324Y-10585412D02*
X10927324Y-10413984D01*
X11060658Y-10613984D02*
X11041610Y-10604460D01*
X11041610Y-10604460D02*
X11032086Y-10585412D01*
X11032086Y-10585412D02*
X11032086Y-10413984D01*
X11289229Y-10613984D02*
X11289229Y-10413984D01*
X11289229Y-10413984D02*
X11355896Y-10556841D01*
X11355896Y-10556841D02*
X11422562Y-10413984D01*
X11422562Y-10413984D02*
X11422562Y-10613984D01*
X11603515Y-10613984D02*
X11603515Y-10509222D01*
X11603515Y-10509222D02*
X11593991Y-10490174D01*
X11593991Y-10490174D02*
X11574943Y-10480650D01*
X11574943Y-10480650D02*
X11536848Y-10480650D01*
X11536848Y-10480650D02*
X11517801Y-10490174D01*
X11603515Y-10604460D02*
X11584467Y-10613984D01*
X11584467Y-10613984D02*
X11536848Y-10613984D01*
X11536848Y-10613984D02*
X11517801Y-10604460D01*
X11517801Y-10604460D02*
X11508277Y-10585412D01*
X11508277Y-10585412D02*
X11508277Y-10566365D01*
X11508277Y-10566365D02*
X11517801Y-10547317D01*
X11517801Y-10547317D02*
X11536848Y-10537793D01*
X11536848Y-10537793D02*
X11584467Y-10537793D01*
X11584467Y-10537793D02*
X11603515Y-10528270D01*
X11698753Y-10480650D02*
X11698753Y-10680650D01*
X11698753Y-10490174D02*
X11717801Y-10480650D01*
X11717801Y-10480650D02*
X11755896Y-10480650D01*
X11755896Y-10480650D02*
X11774943Y-10490174D01*
X11774943Y-10490174D02*
X11784467Y-10499698D01*
X11784467Y-10499698D02*
X11793991Y-10518746D01*
X11793991Y-10518746D02*
X11793991Y-10575889D01*
X11793991Y-10575889D02*
X11784467Y-10594936D01*
X11784467Y-10594936D02*
X11774943Y-10604460D01*
X11774943Y-10604460D02*
X11755896Y-10613984D01*
X11755896Y-10613984D02*
X11717801Y-10613984D01*
X11717801Y-10613984D02*
X11698753Y-10604460D01*
X11879705Y-10594936D02*
X11889229Y-10604460D01*
X11889229Y-10604460D02*
X11879705Y-10613984D01*
X11879705Y-10613984D02*
X11870182Y-10604460D01*
X11870182Y-10604460D02*
X11879705Y-10594936D01*
X11879705Y-10594936D02*
X11879705Y-10613984D01*
X11879705Y-10490174D02*
X11889229Y-10499698D01*
X11889229Y-10499698D02*
X11879705Y-10509222D01*
X11879705Y-10509222D02*
X11870182Y-10499698D01*
X11870182Y-10499698D02*
X11879705Y-10490174D01*
X11879705Y-10490174D02*
X11879705Y-10509222D01*
D12*
X10217500Y-10927500D02*
X10247500Y-10957500D01*
X10247500Y-10927500D02*
X10217500Y-10957500D01*
D11*
X10546372Y-10833984D02*
X10565420Y-10833984D01*
X10565420Y-10833984D02*
X10584467Y-10843508D01*
X10584467Y-10843508D02*
X10593991Y-10853031D01*
X10593991Y-10853031D02*
X10603515Y-10872079D01*
X10603515Y-10872079D02*
X10613039Y-10910174D01*
X10613039Y-10910174D02*
X10613039Y-10957793D01*
X10613039Y-10957793D02*
X10603515Y-10995889D01*
X10603515Y-10995889D02*
X10593991Y-11014936D01*
X10593991Y-11014936D02*
X10584467Y-11024460D01*
X10584467Y-11024460D02*
X10565420Y-11033984D01*
X10565420Y-11033984D02*
X10546372Y-11033984D01*
X10546372Y-11033984D02*
X10527324Y-11024460D01*
X10527324Y-11024460D02*
X10517801Y-11014936D01*
X10517801Y-11014936D02*
X10508277Y-10995889D01*
X10508277Y-10995889D02*
X10498753Y-10957793D01*
X10498753Y-10957793D02*
X10498753Y-10910174D01*
X10498753Y-10910174D02*
X10508277Y-10872079D01*
X10508277Y-10872079D02*
X10517801Y-10853031D01*
X10517801Y-10853031D02*
X10527324Y-10843508D01*
X10527324Y-10843508D02*
X10546372Y-10833984D01*
X10698753Y-11014936D02*
X10708277Y-11024460D01*
X10708277Y-11024460D02*
X10698753Y-11033984D01*
X10698753Y-11033984D02*
X10689229Y-11024460D01*
X10689229Y-11024460D02*
X10698753Y-11014936D01*
X10698753Y-11014936D02*
X10698753Y-11033984D01*
X10774944Y-10833984D02*
X10898753Y-10833984D01*
X10898753Y-10833984D02*
X10832086Y-10910174D01*
X10832086Y-10910174D02*
X10860658Y-10910174D01*
X10860658Y-10910174D02*
X10879705Y-10919698D01*
X10879705Y-10919698D02*
X10889229Y-10929222D01*
X10889229Y-10929222D02*
X10898753Y-10948270D01*
X10898753Y-10948270D02*
X10898753Y-10995889D01*
X10898753Y-10995889D02*
X10889229Y-11014936D01*
X10889229Y-11014936D02*
X10879705Y-11024460D01*
X10879705Y-11024460D02*
X10860658Y-11033984D01*
X10860658Y-11033984D02*
X10803515Y-11033984D01*
X10803515Y-11033984D02*
X10784467Y-11024460D01*
X10784467Y-11024460D02*
X10774944Y-11014936D01*
X11022563Y-10833984D02*
X11041610Y-10833984D01*
X11041610Y-10833984D02*
X11060658Y-10843508D01*
X11060658Y-10843508D02*
X11070182Y-10853031D01*
X11070182Y-10853031D02*
X11079705Y-10872079D01*
X11079705Y-10872079D02*
X11089229Y-10910174D01*
X11089229Y-10910174D02*
X11089229Y-10957793D01*
X11089229Y-10957793D02*
X11079705Y-10995889D01*
X11079705Y-10995889D02*
X11070182Y-11014936D01*
X11070182Y-11014936D02*
X11060658Y-11024460D01*
X11060658Y-11024460D02*
X11041610Y-11033984D01*
X11041610Y-11033984D02*
X11022563Y-11033984D01*
X11022563Y-11033984D02*
X11003515Y-11024460D01*
X11003515Y-11024460D02*
X10993991Y-11014936D01*
X10993991Y-11014936D02*
X10984467Y-10995889D01*
X10984467Y-10995889D02*
X10974944Y-10957793D01*
X10974944Y-10957793D02*
X10974944Y-10910174D01*
X10974944Y-10910174D02*
X10984467Y-10872079D01*
X10984467Y-10872079D02*
X10993991Y-10853031D01*
X10993991Y-10853031D02*
X11003515Y-10843508D01*
X11003515Y-10843508D02*
X11022563Y-10833984D01*
X11213039Y-10833984D02*
X11232086Y-10833984D01*
X11232086Y-10833984D02*
X11251134Y-10843508D01*
X11251134Y-10843508D02*
X11260658Y-10853031D01*
X11260658Y-10853031D02*
X11270182Y-10872079D01*
X11270182Y-10872079D02*
X11279705Y-10910174D01*
X11279705Y-10910174D02*
X11279705Y-10957793D01*
X11279705Y-10957793D02*
X11270182Y-10995889D01*
X11270182Y-10995889D02*
X11260658Y-11014936D01*
X11260658Y-11014936D02*
X11251134Y-11024460D01*
X11251134Y-11024460D02*
X11232086Y-11033984D01*
X11232086Y-11033984D02*
X11213039Y-11033984D01*
X11213039Y-11033984D02*
X11193991Y-11024460D01*
X11193991Y-11024460D02*
X11184467Y-11014936D01*
X11184467Y-11014936D02*
X11174944Y-10995889D01*
X11174944Y-10995889D02*
X11165420Y-10957793D01*
X11165420Y-10957793D02*
X11165420Y-10910174D01*
X11165420Y-10910174D02*
X11174944Y-10872079D01*
X11174944Y-10872079D02*
X11184467Y-10853031D01*
X11184467Y-10853031D02*
X11193991Y-10843508D01*
X11193991Y-10843508D02*
X11213039Y-10833984D01*
X11365420Y-11033984D02*
X11365420Y-10900650D01*
X11365420Y-10919698D02*
X11374943Y-10910174D01*
X11374943Y-10910174D02*
X11393991Y-10900650D01*
X11393991Y-10900650D02*
X11422563Y-10900650D01*
X11422563Y-10900650D02*
X11441610Y-10910174D01*
X11441610Y-10910174D02*
X11451134Y-10929222D01*
X11451134Y-10929222D02*
X11451134Y-11033984D01*
X11451134Y-10929222D02*
X11460658Y-10910174D01*
X11460658Y-10910174D02*
X11479705Y-10900650D01*
X11479705Y-10900650D02*
X11508277Y-10900650D01*
X11508277Y-10900650D02*
X11527324Y-10910174D01*
X11527324Y-10910174D02*
X11536848Y-10929222D01*
X11536848Y-10929222D02*
X11536848Y-11033984D01*
X11632086Y-11033984D02*
X11632086Y-10900650D01*
X11632086Y-10919698D02*
X11641610Y-10910174D01*
X11641610Y-10910174D02*
X11660658Y-10900650D01*
X11660658Y-10900650D02*
X11689229Y-10900650D01*
X11689229Y-10900650D02*
X11708277Y-10910174D01*
X11708277Y-10910174D02*
X11717801Y-10929222D01*
X11717801Y-10929222D02*
X11717801Y-11033984D01*
X11717801Y-10929222D02*
X11727324Y-10910174D01*
X11727324Y-10910174D02*
X11746372Y-10900650D01*
X11746372Y-10900650D02*
X11774943Y-10900650D01*
X11774943Y-10900650D02*
X11793991Y-10910174D01*
X11793991Y-10910174D02*
X11803515Y-10929222D01*
X11803515Y-10929222D02*
X11803515Y-11033984D01*
X12193991Y-10824460D02*
X12022563Y-11081603D01*
X12451134Y-10833984D02*
X12470182Y-10833984D01*
X12470182Y-10833984D02*
X12489229Y-10843508D01*
X12489229Y-10843508D02*
X12498753Y-10853031D01*
X12498753Y-10853031D02*
X12508277Y-10872079D01*
X12508277Y-10872079D02*
X12517801Y-10910174D01*
X12517801Y-10910174D02*
X12517801Y-10957793D01*
X12517801Y-10957793D02*
X12508277Y-10995889D01*
X12508277Y-10995889D02*
X12498753Y-11014936D01*
X12498753Y-11014936D02*
X12489229Y-11024460D01*
X12489229Y-11024460D02*
X12470182Y-11033984D01*
X12470182Y-11033984D02*
X12451134Y-11033984D01*
X12451134Y-11033984D02*
X12432086Y-11024460D01*
X12432086Y-11024460D02*
X12422563Y-11014936D01*
X12422563Y-11014936D02*
X12413039Y-10995889D01*
X12413039Y-10995889D02*
X12403515Y-10957793D01*
X12403515Y-10957793D02*
X12403515Y-10910174D01*
X12403515Y-10910174D02*
X12413039Y-10872079D01*
X12413039Y-10872079D02*
X12422563Y-10853031D01*
X12422563Y-10853031D02*
X12432086Y-10843508D01*
X12432086Y-10843508D02*
X12451134Y-10833984D01*
X12603515Y-11014936D02*
X12613039Y-11024460D01*
X12613039Y-11024460D02*
X12603515Y-11033984D01*
X12603515Y-11033984D02*
X12593991Y-11024460D01*
X12593991Y-11024460D02*
X12603515Y-11014936D01*
X12603515Y-11014936D02*
X12603515Y-11033984D01*
X12736848Y-10833984D02*
X12755896Y-10833984D01*
X12755896Y-10833984D02*
X12774944Y-10843508D01*
X12774944Y-10843508D02*
X12784467Y-10853031D01*
X12784467Y-10853031D02*
X12793991Y-10872079D01*
X12793991Y-10872079D02*
X12803515Y-10910174D01*
X12803515Y-10910174D02*
X12803515Y-10957793D01*
X12803515Y-10957793D02*
X12793991Y-10995889D01*
X12793991Y-10995889D02*
X12784467Y-11014936D01*
X12784467Y-11014936D02*
X12774944Y-11024460D01*
X12774944Y-11024460D02*
X12755896Y-11033984D01*
X12755896Y-11033984D02*
X12736848Y-11033984D01*
X12736848Y-11033984D02*
X12717801Y-11024460D01*
X12717801Y-11024460D02*
X12708277Y-11014936D01*
X12708277Y-11014936D02*
X12698753Y-10995889D01*
X12698753Y-10995889D02*
X12689229Y-10957793D01*
X12689229Y-10957793D02*
X12689229Y-10910174D01*
X12689229Y-10910174D02*
X12698753Y-10872079D01*
X12698753Y-10872079D02*
X12708277Y-10853031D01*
X12708277Y-10853031D02*
X12717801Y-10843508D01*
X12717801Y-10843508D02*
X12736848Y-10833984D01*
X12993991Y-11033984D02*
X12879706Y-11033984D01*
X12936848Y-11033984D02*
X12936848Y-10833984D01*
X12936848Y-10833984D02*
X12917801Y-10862555D01*
X12917801Y-10862555D02*
X12898753Y-10881603D01*
X12898753Y-10881603D02*
X12879706Y-10891127D01*
X13184467Y-11033984D02*
X13070182Y-11033984D01*
X13127325Y-11033984D02*
X13127325Y-10833984D01*
X13127325Y-10833984D02*
X13108277Y-10862555D01*
X13108277Y-10862555D02*
X13089229Y-10881603D01*
X13089229Y-10881603D02*
X13070182Y-10891127D01*
X13298753Y-10919698D02*
X13279706Y-10910174D01*
X13279706Y-10910174D02*
X13270182Y-10900650D01*
X13270182Y-10900650D02*
X13260658Y-10881603D01*
X13260658Y-10881603D02*
X13260658Y-10872079D01*
X13260658Y-10872079D02*
X13270182Y-10853031D01*
X13270182Y-10853031D02*
X13279706Y-10843508D01*
X13279706Y-10843508D02*
X13298753Y-10833984D01*
X13298753Y-10833984D02*
X13336848Y-10833984D01*
X13336848Y-10833984D02*
X13355896Y-10843508D01*
X13355896Y-10843508D02*
X13365420Y-10853031D01*
X13365420Y-10853031D02*
X13374944Y-10872079D01*
X13374944Y-10872079D02*
X13374944Y-10881603D01*
X13374944Y-10881603D02*
X13365420Y-10900650D01*
X13365420Y-10900650D02*
X13355896Y-10910174D01*
X13355896Y-10910174D02*
X13336848Y-10919698D01*
X13336848Y-10919698D02*
X13298753Y-10919698D01*
X13298753Y-10919698D02*
X13279706Y-10929222D01*
X13279706Y-10929222D02*
X13270182Y-10938746D01*
X13270182Y-10938746D02*
X13260658Y-10957793D01*
X13260658Y-10957793D02*
X13260658Y-10995889D01*
X13260658Y-10995889D02*
X13270182Y-11014936D01*
X13270182Y-11014936D02*
X13279706Y-11024460D01*
X13279706Y-11024460D02*
X13298753Y-11033984D01*
X13298753Y-11033984D02*
X13336848Y-11033984D01*
X13336848Y-11033984D02*
X13355896Y-11024460D01*
X13355896Y-11024460D02*
X13365420Y-11014936D01*
X13365420Y-11014936D02*
X13374944Y-10995889D01*
X13374944Y-10995889D02*
X13374944Y-10957793D01*
X13374944Y-10957793D02*
X13365420Y-10938746D01*
X13365420Y-10938746D02*
X13355896Y-10929222D01*
X13355896Y-10929222D02*
X13336848Y-10919698D01*
X13451134Y-10833984D02*
X13451134Y-10872079D01*
X13527325Y-10833984D02*
X13527325Y-10872079D01*
X13822563Y-11110174D02*
X13813039Y-11100650D01*
X13813039Y-11100650D02*
X13793991Y-11072079D01*
X13793991Y-11072079D02*
X13784468Y-11053031D01*
X13784468Y-11053031D02*
X13774944Y-11024460D01*
X13774944Y-11024460D02*
X13765420Y-10976841D01*
X13765420Y-10976841D02*
X13765420Y-10938746D01*
X13765420Y-10938746D02*
X13774944Y-10891127D01*
X13774944Y-10891127D02*
X13784468Y-10862555D01*
X13784468Y-10862555D02*
X13793991Y-10843508D01*
X13793991Y-10843508D02*
X13813039Y-10814936D01*
X13813039Y-10814936D02*
X13822563Y-10805412D01*
X13993991Y-10833984D02*
X13898753Y-10833984D01*
X13898753Y-10833984D02*
X13889229Y-10929222D01*
X13889229Y-10929222D02*
X13898753Y-10919698D01*
X13898753Y-10919698D02*
X13917801Y-10910174D01*
X13917801Y-10910174D02*
X13965420Y-10910174D01*
X13965420Y-10910174D02*
X13984468Y-10919698D01*
X13984468Y-10919698D02*
X13993991Y-10929222D01*
X13993991Y-10929222D02*
X14003515Y-10948270D01*
X14003515Y-10948270D02*
X14003515Y-10995889D01*
X14003515Y-10995889D02*
X13993991Y-11014936D01*
X13993991Y-11014936D02*
X13984468Y-11024460D01*
X13984468Y-11024460D02*
X13965420Y-11033984D01*
X13965420Y-11033984D02*
X13917801Y-11033984D01*
X13917801Y-11033984D02*
X13898753Y-11024460D01*
X13898753Y-11024460D02*
X13889229Y-11014936D01*
X14241610Y-11033984D02*
X14241610Y-10833984D01*
X14327325Y-11033984D02*
X14327325Y-10929222D01*
X14327325Y-10929222D02*
X14317801Y-10910174D01*
X14317801Y-10910174D02*
X14298753Y-10900650D01*
X14298753Y-10900650D02*
X14270182Y-10900650D01*
X14270182Y-10900650D02*
X14251134Y-10910174D01*
X14251134Y-10910174D02*
X14241610Y-10919698D01*
X14451134Y-11033984D02*
X14432087Y-11024460D01*
X14432087Y-11024460D02*
X14422563Y-11014936D01*
X14422563Y-11014936D02*
X14413039Y-10995889D01*
X14413039Y-10995889D02*
X14413039Y-10938746D01*
X14413039Y-10938746D02*
X14422563Y-10919698D01*
X14422563Y-10919698D02*
X14432087Y-10910174D01*
X14432087Y-10910174D02*
X14451134Y-10900650D01*
X14451134Y-10900650D02*
X14479706Y-10900650D01*
X14479706Y-10900650D02*
X14498753Y-10910174D01*
X14498753Y-10910174D02*
X14508277Y-10919698D01*
X14508277Y-10919698D02*
X14517801Y-10938746D01*
X14517801Y-10938746D02*
X14517801Y-10995889D01*
X14517801Y-10995889D02*
X14508277Y-11014936D01*
X14508277Y-11014936D02*
X14498753Y-11024460D01*
X14498753Y-11024460D02*
X14479706Y-11033984D01*
X14479706Y-11033984D02*
X14451134Y-11033984D01*
X14632087Y-11033984D02*
X14613039Y-11024460D01*
X14613039Y-11024460D02*
X14603515Y-11005412D01*
X14603515Y-11005412D02*
X14603515Y-10833984D01*
X14784468Y-11024460D02*
X14765420Y-11033984D01*
X14765420Y-11033984D02*
X14727325Y-11033984D01*
X14727325Y-11033984D02*
X14708277Y-11024460D01*
X14708277Y-11024460D02*
X14698753Y-11005412D01*
X14698753Y-11005412D02*
X14698753Y-10929222D01*
X14698753Y-10929222D02*
X14708277Y-10910174D01*
X14708277Y-10910174D02*
X14727325Y-10900650D01*
X14727325Y-10900650D02*
X14765420Y-10900650D01*
X14765420Y-10900650D02*
X14784468Y-10910174D01*
X14784468Y-10910174D02*
X14793991Y-10929222D01*
X14793991Y-10929222D02*
X14793991Y-10948270D01*
X14793991Y-10948270D02*
X14698753Y-10967317D01*
X14870182Y-11024460D02*
X14889230Y-11033984D01*
X14889230Y-11033984D02*
X14927325Y-11033984D01*
X14927325Y-11033984D02*
X14946372Y-11024460D01*
X14946372Y-11024460D02*
X14955896Y-11005412D01*
X14955896Y-11005412D02*
X14955896Y-10995889D01*
X14955896Y-10995889D02*
X14946372Y-10976841D01*
X14946372Y-10976841D02*
X14927325Y-10967317D01*
X14927325Y-10967317D02*
X14898753Y-10967317D01*
X14898753Y-10967317D02*
X14879706Y-10957793D01*
X14879706Y-10957793D02*
X14870182Y-10938746D01*
X14870182Y-10938746D02*
X14870182Y-10929222D01*
X14870182Y-10929222D02*
X14879706Y-10910174D01*
X14879706Y-10910174D02*
X14898753Y-10900650D01*
X14898753Y-10900650D02*
X14927325Y-10900650D01*
X14927325Y-10900650D02*
X14946372Y-10910174D01*
X15022563Y-11110174D02*
X15032087Y-11100650D01*
X15032087Y-11100650D02*
X15051134Y-11072079D01*
X15051134Y-11072079D02*
X15060658Y-11053031D01*
X15060658Y-11053031D02*
X15070182Y-11024460D01*
X15070182Y-11024460D02*
X15079706Y-10976841D01*
X15079706Y-10976841D02*
X15079706Y-10938746D01*
X15079706Y-10938746D02*
X15070182Y-10891127D01*
X15070182Y-10891127D02*
X15060658Y-10862555D01*
X15060658Y-10862555D02*
X15051134Y-10843508D01*
X15051134Y-10843508D02*
X15032087Y-10814936D01*
X15032087Y-10814936D02*
X15022563Y-10805412D01*
D12*
X10247500Y-11206500D02*
G75*
G02*
X10147500Y-11206500I-50000J0D01*
G01*
X10147500Y-11206500D02*
G75*
G02*
X10247500Y-11206500I50000J0D01*
G01*
D11*
X10613039Y-11297984D02*
X10498753Y-11297984D01*
X10555896Y-11297984D02*
X10555896Y-11097984D01*
X10555896Y-11097984D02*
X10536848Y-11126555D01*
X10536848Y-11126555D02*
X10517801Y-11145603D01*
X10517801Y-11145603D02*
X10498753Y-11155127D01*
X10698753Y-11278936D02*
X10708277Y-11288460D01*
X10708277Y-11288460D02*
X10698753Y-11297984D01*
X10698753Y-11297984D02*
X10689229Y-11288460D01*
X10689229Y-11288460D02*
X10698753Y-11278936D01*
X10698753Y-11278936D02*
X10698753Y-11297984D01*
X10832086Y-11097984D02*
X10851134Y-11097984D01*
X10851134Y-11097984D02*
X10870182Y-11107508D01*
X10870182Y-11107508D02*
X10879705Y-11117031D01*
X10879705Y-11117031D02*
X10889229Y-11136079D01*
X10889229Y-11136079D02*
X10898753Y-11174174D01*
X10898753Y-11174174D02*
X10898753Y-11221793D01*
X10898753Y-11221793D02*
X10889229Y-11259888D01*
X10889229Y-11259888D02*
X10879705Y-11278936D01*
X10879705Y-11278936D02*
X10870182Y-11288460D01*
X10870182Y-11288460D02*
X10851134Y-11297984D01*
X10851134Y-11297984D02*
X10832086Y-11297984D01*
X10832086Y-11297984D02*
X10813039Y-11288460D01*
X10813039Y-11288460D02*
X10803515Y-11278936D01*
X10803515Y-11278936D02*
X10793991Y-11259888D01*
X10793991Y-11259888D02*
X10784467Y-11221793D01*
X10784467Y-11221793D02*
X10784467Y-11174174D01*
X10784467Y-11174174D02*
X10793991Y-11136079D01*
X10793991Y-11136079D02*
X10803515Y-11117031D01*
X10803515Y-11117031D02*
X10813039Y-11107508D01*
X10813039Y-11107508D02*
X10832086Y-11097984D01*
X11022563Y-11097984D02*
X11041610Y-11097984D01*
X11041610Y-11097984D02*
X11060658Y-11107508D01*
X11060658Y-11107508D02*
X11070182Y-11117031D01*
X11070182Y-11117031D02*
X11079705Y-11136079D01*
X11079705Y-11136079D02*
X11089229Y-11174174D01*
X11089229Y-11174174D02*
X11089229Y-11221793D01*
X11089229Y-11221793D02*
X11079705Y-11259888D01*
X11079705Y-11259888D02*
X11070182Y-11278936D01*
X11070182Y-11278936D02*
X11060658Y-11288460D01*
X11060658Y-11288460D02*
X11041610Y-11297984D01*
X11041610Y-11297984D02*
X11022563Y-11297984D01*
X11022563Y-11297984D02*
X11003515Y-11288460D01*
X11003515Y-11288460D02*
X10993991Y-11278936D01*
X10993991Y-11278936D02*
X10984467Y-11259888D01*
X10984467Y-11259888D02*
X10974944Y-11221793D01*
X10974944Y-11221793D02*
X10974944Y-11174174D01*
X10974944Y-11174174D02*
X10984467Y-11136079D01*
X10984467Y-11136079D02*
X10993991Y-11117031D01*
X10993991Y-11117031D02*
X11003515Y-11107508D01*
X11003515Y-11107508D02*
X11022563Y-11097984D01*
X11213039Y-11097984D02*
X11232086Y-11097984D01*
X11232086Y-11097984D02*
X11251134Y-11107508D01*
X11251134Y-11107508D02*
X11260658Y-11117031D01*
X11260658Y-11117031D02*
X11270182Y-11136079D01*
X11270182Y-11136079D02*
X11279705Y-11174174D01*
X11279705Y-11174174D02*
X11279705Y-11221793D01*
X11279705Y-11221793D02*
X11270182Y-11259888D01*
X11270182Y-11259888D02*
X11260658Y-11278936D01*
X11260658Y-11278936D02*
X11251134Y-11288460D01*
X11251134Y-11288460D02*
X11232086Y-11297984D01*
X11232086Y-11297984D02*
X11213039Y-11297984D01*
X11213039Y-11297984D02*
X11193991Y-11288460D01*
X11193991Y-11288460D02*
X11184467Y-11278936D01*
X11184467Y-11278936D02*
X11174944Y-11259888D01*
X11174944Y-11259888D02*
X11165420Y-11221793D01*
X11165420Y-11221793D02*
X11165420Y-11174174D01*
X11165420Y-11174174D02*
X11174944Y-11136079D01*
X11174944Y-11136079D02*
X11184467Y-11117031D01*
X11184467Y-11117031D02*
X11193991Y-11107508D01*
X11193991Y-11107508D02*
X11213039Y-11097984D01*
X11365420Y-11297984D02*
X11365420Y-11164650D01*
X11365420Y-11183698D02*
X11374943Y-11174174D01*
X11374943Y-11174174D02*
X11393991Y-11164650D01*
X11393991Y-11164650D02*
X11422563Y-11164650D01*
X11422563Y-11164650D02*
X11441610Y-11174174D01*
X11441610Y-11174174D02*
X11451134Y-11193222D01*
X11451134Y-11193222D02*
X11451134Y-11297984D01*
X11451134Y-11193222D02*
X11460658Y-11174174D01*
X11460658Y-11174174D02*
X11479705Y-11164650D01*
X11479705Y-11164650D02*
X11508277Y-11164650D01*
X11508277Y-11164650D02*
X11527324Y-11174174D01*
X11527324Y-11174174D02*
X11536848Y-11193222D01*
X11536848Y-11193222D02*
X11536848Y-11297984D01*
X11632086Y-11297984D02*
X11632086Y-11164650D01*
X11632086Y-11183698D02*
X11641610Y-11174174D01*
X11641610Y-11174174D02*
X11660658Y-11164650D01*
X11660658Y-11164650D02*
X11689229Y-11164650D01*
X11689229Y-11164650D02*
X11708277Y-11174174D01*
X11708277Y-11174174D02*
X11717801Y-11193222D01*
X11717801Y-11193222D02*
X11717801Y-11297984D01*
X11717801Y-11193222D02*
X11727324Y-11174174D01*
X11727324Y-11174174D02*
X11746372Y-11164650D01*
X11746372Y-11164650D02*
X11774943Y-11164650D01*
X11774943Y-11164650D02*
X11793991Y-11174174D01*
X11793991Y-11174174D02*
X11803515Y-11193222D01*
X11803515Y-11193222D02*
X11803515Y-11297984D01*
X12193991Y-11088460D02*
X12022563Y-11345603D01*
X12451134Y-11097984D02*
X12470182Y-11097984D01*
X12470182Y-11097984D02*
X12489229Y-11107508D01*
X12489229Y-11107508D02*
X12498753Y-11117031D01*
X12498753Y-11117031D02*
X12508277Y-11136079D01*
X12508277Y-11136079D02*
X12517801Y-11174174D01*
X12517801Y-11174174D02*
X12517801Y-11221793D01*
X12517801Y-11221793D02*
X12508277Y-11259888D01*
X12508277Y-11259888D02*
X12498753Y-11278936D01*
X12498753Y-11278936D02*
X12489229Y-11288460D01*
X12489229Y-11288460D02*
X12470182Y-11297984D01*
X12470182Y-11297984D02*
X12451134Y-11297984D01*
X12451134Y-11297984D02*
X12432086Y-11288460D01*
X12432086Y-11288460D02*
X12422563Y-11278936D01*
X12422563Y-11278936D02*
X12413039Y-11259888D01*
X12413039Y-11259888D02*
X12403515Y-11221793D01*
X12403515Y-11221793D02*
X12403515Y-11174174D01*
X12403515Y-11174174D02*
X12413039Y-11136079D01*
X12413039Y-11136079D02*
X12422563Y-11117031D01*
X12422563Y-11117031D02*
X12432086Y-11107508D01*
X12432086Y-11107508D02*
X12451134Y-11097984D01*
X12603515Y-11278936D02*
X12613039Y-11288460D01*
X12613039Y-11288460D02*
X12603515Y-11297984D01*
X12603515Y-11297984D02*
X12593991Y-11288460D01*
X12593991Y-11288460D02*
X12603515Y-11278936D01*
X12603515Y-11278936D02*
X12603515Y-11297984D01*
X12736848Y-11097984D02*
X12755896Y-11097984D01*
X12755896Y-11097984D02*
X12774944Y-11107508D01*
X12774944Y-11107508D02*
X12784467Y-11117031D01*
X12784467Y-11117031D02*
X12793991Y-11136079D01*
X12793991Y-11136079D02*
X12803515Y-11174174D01*
X12803515Y-11174174D02*
X12803515Y-11221793D01*
X12803515Y-11221793D02*
X12793991Y-11259888D01*
X12793991Y-11259888D02*
X12784467Y-11278936D01*
X12784467Y-11278936D02*
X12774944Y-11288460D01*
X12774944Y-11288460D02*
X12755896Y-11297984D01*
X12755896Y-11297984D02*
X12736848Y-11297984D01*
X12736848Y-11297984D02*
X12717801Y-11288460D01*
X12717801Y-11288460D02*
X12708277Y-11278936D01*
X12708277Y-11278936D02*
X12698753Y-11259888D01*
X12698753Y-11259888D02*
X12689229Y-11221793D01*
X12689229Y-11221793D02*
X12689229Y-11174174D01*
X12689229Y-11174174D02*
X12698753Y-11136079D01*
X12698753Y-11136079D02*
X12708277Y-11117031D01*
X12708277Y-11117031D02*
X12717801Y-11107508D01*
X12717801Y-11107508D02*
X12736848Y-11097984D01*
X12870182Y-11097984D02*
X12993991Y-11097984D01*
X12993991Y-11097984D02*
X12927325Y-11174174D01*
X12927325Y-11174174D02*
X12955896Y-11174174D01*
X12955896Y-11174174D02*
X12974944Y-11183698D01*
X12974944Y-11183698D02*
X12984467Y-11193222D01*
X12984467Y-11193222D02*
X12993991Y-11212269D01*
X12993991Y-11212269D02*
X12993991Y-11259888D01*
X12993991Y-11259888D02*
X12984467Y-11278936D01*
X12984467Y-11278936D02*
X12974944Y-11288460D01*
X12974944Y-11288460D02*
X12955896Y-11297984D01*
X12955896Y-11297984D02*
X12898753Y-11297984D01*
X12898753Y-11297984D02*
X12879706Y-11288460D01*
X12879706Y-11288460D02*
X12870182Y-11278936D01*
X13089229Y-11297984D02*
X13127325Y-11297984D01*
X13127325Y-11297984D02*
X13146372Y-11288460D01*
X13146372Y-11288460D02*
X13155896Y-11278936D01*
X13155896Y-11278936D02*
X13174944Y-11250365D01*
X13174944Y-11250365D02*
X13184467Y-11212269D01*
X13184467Y-11212269D02*
X13184467Y-11136079D01*
X13184467Y-11136079D02*
X13174944Y-11117031D01*
X13174944Y-11117031D02*
X13165420Y-11107508D01*
X13165420Y-11107508D02*
X13146372Y-11097984D01*
X13146372Y-11097984D02*
X13108277Y-11097984D01*
X13108277Y-11097984D02*
X13089229Y-11107508D01*
X13089229Y-11107508D02*
X13079706Y-11117031D01*
X13079706Y-11117031D02*
X13070182Y-11136079D01*
X13070182Y-11136079D02*
X13070182Y-11183698D01*
X13070182Y-11183698D02*
X13079706Y-11202746D01*
X13079706Y-11202746D02*
X13089229Y-11212269D01*
X13089229Y-11212269D02*
X13108277Y-11221793D01*
X13108277Y-11221793D02*
X13146372Y-11221793D01*
X13146372Y-11221793D02*
X13165420Y-11212269D01*
X13165420Y-11212269D02*
X13174944Y-11202746D01*
X13174944Y-11202746D02*
X13184467Y-11183698D01*
X13355896Y-11164650D02*
X13355896Y-11297984D01*
X13308277Y-11088460D02*
X13260658Y-11231317D01*
X13260658Y-11231317D02*
X13384467Y-11231317D01*
X13451134Y-11097984D02*
X13451134Y-11136079D01*
X13527325Y-11097984D02*
X13527325Y-11136079D01*
X13822563Y-11374174D02*
X13813039Y-11364650D01*
X13813039Y-11364650D02*
X13793991Y-11336079D01*
X13793991Y-11336079D02*
X13784468Y-11317031D01*
X13784468Y-11317031D02*
X13774944Y-11288460D01*
X13774944Y-11288460D02*
X13765420Y-11240841D01*
X13765420Y-11240841D02*
X13765420Y-11202746D01*
X13765420Y-11202746D02*
X13774944Y-11155127D01*
X13774944Y-11155127D02*
X13784468Y-11126555D01*
X13784468Y-11126555D02*
X13793991Y-11107508D01*
X13793991Y-11107508D02*
X13813039Y-11078936D01*
X13813039Y-11078936D02*
X13822563Y-11069412D01*
X13984468Y-11164650D02*
X13984468Y-11297984D01*
X13936848Y-11088460D02*
X13889229Y-11231317D01*
X13889229Y-11231317D02*
X14013039Y-11231317D01*
X14117801Y-11183698D02*
X14098753Y-11174174D01*
X14098753Y-11174174D02*
X14089229Y-11164650D01*
X14089229Y-11164650D02*
X14079706Y-11145603D01*
X14079706Y-11145603D02*
X14079706Y-11136079D01*
X14079706Y-11136079D02*
X14089229Y-11117031D01*
X14089229Y-11117031D02*
X14098753Y-11107508D01*
X14098753Y-11107508D02*
X14117801Y-11097984D01*
X14117801Y-11097984D02*
X14155896Y-11097984D01*
X14155896Y-11097984D02*
X14174944Y-11107508D01*
X14174944Y-11107508D02*
X14184468Y-11117031D01*
X14184468Y-11117031D02*
X14193991Y-11136079D01*
X14193991Y-11136079D02*
X14193991Y-11145603D01*
X14193991Y-11145603D02*
X14184468Y-11164650D01*
X14184468Y-11164650D02*
X14174944Y-11174174D01*
X14174944Y-11174174D02*
X14155896Y-11183698D01*
X14155896Y-11183698D02*
X14117801Y-11183698D01*
X14117801Y-11183698D02*
X14098753Y-11193222D01*
X14098753Y-11193222D02*
X14089229Y-11202746D01*
X14089229Y-11202746D02*
X14079706Y-11221793D01*
X14079706Y-11221793D02*
X14079706Y-11259888D01*
X14079706Y-11259888D02*
X14089229Y-11278936D01*
X14089229Y-11278936D02*
X14098753Y-11288460D01*
X14098753Y-11288460D02*
X14117801Y-11297984D01*
X14117801Y-11297984D02*
X14155896Y-11297984D01*
X14155896Y-11297984D02*
X14174944Y-11288460D01*
X14174944Y-11288460D02*
X14184468Y-11278936D01*
X14184468Y-11278936D02*
X14193991Y-11259888D01*
X14193991Y-11259888D02*
X14193991Y-11221793D01*
X14193991Y-11221793D02*
X14184468Y-11202746D01*
X14184468Y-11202746D02*
X14174944Y-11193222D01*
X14174944Y-11193222D02*
X14155896Y-11183698D01*
X14432087Y-11297984D02*
X14432087Y-11097984D01*
X14517801Y-11297984D02*
X14517801Y-11193222D01*
X14517801Y-11193222D02*
X14508277Y-11174174D01*
X14508277Y-11174174D02*
X14489230Y-11164650D01*
X14489230Y-11164650D02*
X14460658Y-11164650D01*
X14460658Y-11164650D02*
X14441610Y-11174174D01*
X14441610Y-11174174D02*
X14432087Y-11183698D01*
X14641610Y-11297984D02*
X14622563Y-11288460D01*
X14622563Y-11288460D02*
X14613039Y-11278936D01*
X14613039Y-11278936D02*
X14603515Y-11259888D01*
X14603515Y-11259888D02*
X14603515Y-11202746D01*
X14603515Y-11202746D02*
X14613039Y-11183698D01*
X14613039Y-11183698D02*
X14622563Y-11174174D01*
X14622563Y-11174174D02*
X14641610Y-11164650D01*
X14641610Y-11164650D02*
X14670182Y-11164650D01*
X14670182Y-11164650D02*
X14689230Y-11174174D01*
X14689230Y-11174174D02*
X14698753Y-11183698D01*
X14698753Y-11183698D02*
X14708277Y-11202746D01*
X14708277Y-11202746D02*
X14708277Y-11259888D01*
X14708277Y-11259888D02*
X14698753Y-11278936D01*
X14698753Y-11278936D02*
X14689230Y-11288460D01*
X14689230Y-11288460D02*
X14670182Y-11297984D01*
X14670182Y-11297984D02*
X14641610Y-11297984D01*
X14822563Y-11297984D02*
X14803515Y-11288460D01*
X14803515Y-11288460D02*
X14793991Y-11269412D01*
X14793991Y-11269412D02*
X14793991Y-11097984D01*
X14974944Y-11288460D02*
X14955896Y-11297984D01*
X14955896Y-11297984D02*
X14917801Y-11297984D01*
X14917801Y-11297984D02*
X14898753Y-11288460D01*
X14898753Y-11288460D02*
X14889230Y-11269412D01*
X14889230Y-11269412D02*
X14889230Y-11193222D01*
X14889230Y-11193222D02*
X14898753Y-11174174D01*
X14898753Y-11174174D02*
X14917801Y-11164650D01*
X14917801Y-11164650D02*
X14955896Y-11164650D01*
X14955896Y-11164650D02*
X14974944Y-11174174D01*
X14974944Y-11174174D02*
X14984468Y-11193222D01*
X14984468Y-11193222D02*
X14984468Y-11212269D01*
X14984468Y-11212269D02*
X14889230Y-11231317D01*
X15060658Y-11288460D02*
X15079706Y-11297984D01*
X15079706Y-11297984D02*
X15117801Y-11297984D01*
X15117801Y-11297984D02*
X15136849Y-11288460D01*
X15136849Y-11288460D02*
X15146372Y-11269412D01*
X15146372Y-11269412D02*
X15146372Y-11259888D01*
X15146372Y-11259888D02*
X15136849Y-11240841D01*
X15136849Y-11240841D02*
X15117801Y-11231317D01*
X15117801Y-11231317D02*
X15089230Y-11231317D01*
X15089230Y-11231317D02*
X15070182Y-11221793D01*
X15070182Y-11221793D02*
X15060658Y-11202746D01*
X15060658Y-11202746D02*
X15060658Y-11193222D01*
X15060658Y-11193222D02*
X15070182Y-11174174D01*
X15070182Y-11174174D02*
X15089230Y-11164650D01*
X15089230Y-11164650D02*
X15117801Y-11164650D01*
X15117801Y-11164650D02*
X15136849Y-11174174D01*
X15213039Y-11374174D02*
X15222563Y-11364650D01*
X15222563Y-11364650D02*
X15241611Y-11336079D01*
X15241611Y-11336079D02*
X15251134Y-11317031D01*
X15251134Y-11317031D02*
X15260658Y-11288460D01*
X15260658Y-11288460D02*
X15270182Y-11240841D01*
X15270182Y-11240841D02*
X15270182Y-11202746D01*
X15270182Y-11202746D02*
X15260658Y-11155127D01*
X15260658Y-11155127D02*
X15251134Y-11126555D01*
X15251134Y-11126555D02*
X15241611Y-11107508D01*
X15241611Y-11107508D02*
X15222563Y-11078936D01*
X15222563Y-11078936D02*
X15213039Y-11069412D01*
M02*
