%TF.GenerationSoftware,KiCad,Pcbnew,8.0.5*%
%TF.CreationDate,2024-10-30T21:55:18+01:00*%
%TF.ProjectId,p_ytka,70427974-6b61-42e6-9b69-6361645f7063,rev?*%
%TF.SameCoordinates,Original*%
%TF.FileFunction,Copper,L1,Top*%
%TF.FilePolarity,Positive*%
%FSLAX46Y46*%
G04 Gerber Fmt 4.6, Leading zero omitted, Abs format (unit mm)*
G04 Created by KiCad (PCBNEW 8.0.5) date 2024-10-30 21:55:18*
%MOMM*%
%LPD*%
G01*
G04 APERTURE LIST*
G04 Aperture macros list*
%AMRoundRect*
0 Rectangle with rounded corners*
0 $1 Rounding radius*
0 $2 $3 $4 $5 $6 $7 $8 $9 X,Y pos of 4 corners*
0 Add a 4 corners polygon primitive as box body*
4,1,4,$2,$3,$4,$5,$6,$7,$8,$9,$2,$3,0*
0 Add four circle primitives for the rounded corners*
1,1,$1+$1,$2,$3*
1,1,$1+$1,$4,$5*
1,1,$1+$1,$6,$7*
1,1,$1+$1,$8,$9*
0 Add four rect primitives between the rounded corners*
20,1,$1+$1,$2,$3,$4,$5,0*
20,1,$1+$1,$4,$5,$6,$7,0*
20,1,$1+$1,$6,$7,$8,$9,0*
20,1,$1+$1,$8,$9,$2,$3,0*%
G04 Aperture macros list end*
%TA.AperFunction,ComponentPad*%
%ADD10R,1.700000X1.700000*%
%TD*%
%TA.AperFunction,ComponentPad*%
%ADD11O,1.700000X1.700000*%
%TD*%
%TA.AperFunction,SMDPad,CuDef*%
%ADD12RoundRect,0.250000X0.625000X-0.375000X0.625000X0.375000X-0.625000X0.375000X-0.625000X-0.375000X0*%
%TD*%
%TA.AperFunction,SMDPad,CuDef*%
%ADD13RoundRect,0.250000X-0.625000X0.312500X-0.625000X-0.312500X0.625000X-0.312500X0.625000X0.312500X0*%
%TD*%
%TA.AperFunction,ViaPad*%
%ADD14C,0.600000*%
%TD*%
%TA.AperFunction,Conductor*%
%ADD15C,0.200000*%
%TD*%
G04 APERTURE END LIST*
D10*
%TO.P,J3,1*%
%TO.N,LED2_IN*%
X137475000Y-84250000D03*
D11*
%TO.P,J3,2*%
%TO.N,ADC*%
X137475000Y-86790000D03*
%TD*%
D10*
%TO.P,REF\u002A\u002A,1*%
%TO.N,DAC_OUT*%
X153000000Y-50500000D03*
%TD*%
D12*
%TO.P,D1,1,K*%
%TO.N,ADC*%
X127000000Y-84400000D03*
%TO.P,D1,2,A*%
%TO.N,INPUT*%
X127000000Y-81600000D03*
%TD*%
D10*
%TO.P,REF\u002A\u002A,1*%
%TO.N,N/C*%
X104740000Y-59360000D03*
D11*
%TO.P,REF\u002A\u002A,2*%
X104740000Y-61900000D03*
%TO.P,REF\u002A\u002A,3*%
X104740000Y-64440000D03*
%TO.P,REF\u002A\u002A,4*%
X104740000Y-66980000D03*
%TO.P,REF\u002A\u002A,5*%
X104740000Y-69520000D03*
%TO.P,REF\u002A\u002A,6*%
X104740000Y-72060000D03*
%TO.P,REF\u002A\u002A,7*%
X104740000Y-74600000D03*
%TO.P,REF\u002A\u002A,8*%
X104740000Y-77140000D03*
%TO.P,REF\u002A\u002A,9*%
X104740000Y-79680000D03*
%TO.P,REF\u002A\u002A,10*%
X104740000Y-82220000D03*
%TO.P,REF\u002A\u002A,11*%
X104740000Y-84760000D03*
%TO.P,REF\u002A\u002A,12*%
X104740000Y-87300000D03*
%TO.P,REF\u002A\u002A,13*%
X104740000Y-89840000D03*
%TO.P,REF\u002A\u002A,14*%
X104740000Y-92380000D03*
%TO.P,REF\u002A\u002A,15*%
X104740000Y-94920000D03*
%TO.P,REF\u002A\u002A,16*%
%TO.N,ADC*%
X104740000Y-97460000D03*
%TO.P,REF\u002A\u002A,17*%
%TO.N,GND*%
X104740000Y-100000000D03*
%TD*%
D13*
%TO.P,R1,1*%
%TO.N,ADC*%
X127000000Y-93537500D03*
%TO.P,R1,2*%
%TO.N,GND*%
X127000000Y-96462500D03*
%TD*%
D10*
%TO.P,J4,1*%
%TO.N,INPUT*%
X124460000Y-72000000D03*
D11*
%TO.P,J4,2*%
X127000000Y-72000000D03*
%TO.P,J4,3*%
%TO.N,LED2_IN*%
X129540000Y-72000000D03*
%TD*%
D10*
%TO.P,J2,1*%
%TO.N,GND*%
X108975000Y-51474000D03*
D11*
%TO.P,J2,2*%
%TO.N,OPAMP_OUT*%
X111515000Y-51474000D03*
%TO.P,J2,3*%
%TO.N,DAC_OUT*%
X114055000Y-51474000D03*
%TD*%
D10*
%TO.P,REF\u002A\u002A,1*%
%TO.N,N/C*%
X153000000Y-55730000D03*
D11*
%TO.P,REF\u002A\u002A,2*%
X153000000Y-58270000D03*
%TO.P,REF\u002A\u002A,3*%
X153000000Y-60810000D03*
%TO.P,REF\u002A\u002A,4*%
X153000000Y-63350000D03*
%TO.P,REF\u002A\u002A,5*%
X153000000Y-65890000D03*
%TO.P,REF\u002A\u002A,6*%
%TO.N,OPAMP_OUT*%
X153000000Y-68430000D03*
%TO.P,REF\u002A\u002A,7*%
%TO.N,OPAMP_IN*%
X153000000Y-70970000D03*
%TO.P,REF\u002A\u002A,8*%
%TO.N,N/C*%
X153000000Y-73510000D03*
%TO.P,REF\u002A\u002A,9*%
X153000000Y-76050000D03*
%TO.P,REF\u002A\u002A,10*%
X153000000Y-78590000D03*
%TD*%
D10*
%TO.P,REF\u002A\u002A,1*%
%TO.N,N/C*%
X153000000Y-82720000D03*
D11*
%TO.P,REF\u002A\u002A,2*%
X153000000Y-85260000D03*
%TO.P,REF\u002A\u002A,3*%
X153000000Y-87800000D03*
%TO.P,REF\u002A\u002A,4*%
X153000000Y-90340000D03*
%TO.P,REF\u002A\u002A,5*%
X153000000Y-92880000D03*
%TO.P,REF\u002A\u002A,6*%
X153000000Y-95420000D03*
%TO.P,REF\u002A\u002A,7*%
X153000000Y-97960000D03*
%TO.P,REF\u002A\u002A,8*%
X153000000Y-100500000D03*
%TD*%
D10*
%TO.P,J1,1*%
%TO.N,DAC_OUT*%
X126960000Y-59710000D03*
D11*
%TO.P,J1,2*%
%TO.N,OPAMP_IN*%
X129500000Y-59710000D03*
%TO.P,J1,3*%
%TO.N,INPUT*%
X126960000Y-62250000D03*
%TO.P,J1,4*%
%TO.N,OPAMP_OUT*%
X129500000Y-62250000D03*
%TD*%
D14*
%TO.N,GND*%
X109000000Y-91000000D03*
X109000000Y-96462500D03*
%TO.N,OPAMP_OUT*%
X124000000Y-65000000D03*
X137500000Y-62500000D03*
X133000000Y-62500000D03*
%TD*%
D15*
%TO.N,ADC*%
X137000000Y-89000000D02*
X127000000Y-89000000D01*
X127000000Y-84400000D02*
X127000000Y-89000000D01*
X137475000Y-88525000D02*
X137000000Y-89000000D01*
X137475000Y-84250000D02*
X137475000Y-88525000D01*
X108662500Y-93537500D02*
X104740000Y-97460000D01*
X127000000Y-89000000D02*
X127000000Y-93537500D01*
X127000000Y-93537500D02*
X108662500Y-93537500D01*
%TO.N,GND*%
X109000000Y-96462500D02*
X108277500Y-96462500D01*
X108975000Y-90475000D02*
X108975000Y-51475000D01*
X127000000Y-96462500D02*
X109000000Y-96462500D01*
X108277500Y-96462500D02*
X104740000Y-100000000D01*
X126962500Y-96462500D02*
X127000000Y-96500000D01*
X109000000Y-91000000D02*
X109000000Y-90500000D01*
X109000000Y-90500000D02*
X108975000Y-90475000D01*
%TO.N,INPUT*%
X126960000Y-62250000D02*
X126960000Y-71960000D01*
X124460000Y-72000000D02*
X124460000Y-79060000D01*
X126960000Y-71960000D02*
X127000000Y-72000000D01*
X124460000Y-79060000D02*
X127000000Y-81600000D01*
%TO.N,DAC_OUT*%
X114055000Y-51475000D02*
X135195000Y-51475000D01*
X135335000Y-51335000D02*
X136170000Y-50500000D01*
X135195000Y-51475000D02*
X135335000Y-51335000D01*
X142000000Y-50500000D02*
X153000000Y-50500000D01*
X126960000Y-59710000D02*
X135335000Y-51335000D01*
X136170000Y-50500000D02*
X142000000Y-50500000D01*
X142025000Y-50525000D02*
X142000000Y-50500000D01*
%TO.N,OPAMP_IN*%
X143470000Y-70970000D02*
X153000000Y-70970000D01*
X132210000Y-59710000D02*
X143470000Y-70970000D01*
X129500000Y-59710000D02*
X132210000Y-59710000D01*
%TO.N,OPAMP_OUT*%
X153000000Y-68430000D02*
X147070000Y-62500000D01*
X132750000Y-62250000D02*
X129500000Y-62250000D01*
X111515000Y-52515000D02*
X111515000Y-51475000D01*
X133000000Y-62500000D02*
X132750000Y-62250000D01*
X147070000Y-62500000D02*
X137500000Y-62500000D01*
X124000000Y-65000000D02*
X111515000Y-52515000D01*
%TO.N,LED2_IN*%
X135000000Y-72000000D02*
X129540000Y-72000000D01*
X137475000Y-74475000D02*
X135000000Y-72000000D01*
X137475000Y-81710000D02*
X137475000Y-74475000D01*
%TD*%
M02*
