%TF.GenerationSoftware,KiCad,Pcbnew,8.0.5*%
%TF.CreationDate,2024-11-11T20:44:43+01:00*%
%TF.ProjectId,nowa_plytka,6e6f7761-5f70-46c7-9974-6b612e6b6963,rev?*%
%TF.SameCoordinates,Original*%
%TF.FileFunction,Legend,Top*%
%TF.FilePolarity,Positive*%
%FSLAX46Y46*%
G04 Gerber Fmt 4.6, Leading zero omitted, Abs format (unit mm)*
G04 Created by KiCad (PCBNEW 8.0.5) date 2024-11-11 20:44:43*
%MOMM*%
%LPD*%
G01*
G04 APERTURE LIST*
%ADD10C,0.150000*%
%ADD11C,0.120000*%
G04 APERTURE END LIST*
D10*
X129594819Y-103638094D02*
X128594819Y-103638094D01*
X128594819Y-103638094D02*
X128594819Y-103399999D01*
X128594819Y-103399999D02*
X128642438Y-103257142D01*
X128642438Y-103257142D02*
X128737676Y-103161904D01*
X128737676Y-103161904D02*
X128832914Y-103114285D01*
X128832914Y-103114285D02*
X129023390Y-103066666D01*
X129023390Y-103066666D02*
X129166247Y-103066666D01*
X129166247Y-103066666D02*
X129356723Y-103114285D01*
X129356723Y-103114285D02*
X129451961Y-103161904D01*
X129451961Y-103161904D02*
X129547200Y-103257142D01*
X129547200Y-103257142D02*
X129594819Y-103399999D01*
X129594819Y-103399999D02*
X129594819Y-103638094D01*
X129594819Y-102114285D02*
X129594819Y-102685713D01*
X129594819Y-102399999D02*
X128594819Y-102399999D01*
X128594819Y-102399999D02*
X128737676Y-102495237D01*
X128737676Y-102495237D02*
X128832914Y-102590475D01*
X128832914Y-102590475D02*
X128880533Y-102685713D01*
X128044819Y-95333333D02*
X128759104Y-95333333D01*
X128759104Y-95333333D02*
X128901961Y-95380952D01*
X128901961Y-95380952D02*
X128997200Y-95476190D01*
X128997200Y-95476190D02*
X129044819Y-95619047D01*
X129044819Y-95619047D02*
X129044819Y-95714285D01*
X128044819Y-94952380D02*
X128044819Y-94333333D01*
X128044819Y-94333333D02*
X128425771Y-94666666D01*
X128425771Y-94666666D02*
X128425771Y-94523809D01*
X128425771Y-94523809D02*
X128473390Y-94428571D01*
X128473390Y-94428571D02*
X128521009Y-94380952D01*
X128521009Y-94380952D02*
X128616247Y-94333333D01*
X128616247Y-94333333D02*
X128854342Y-94333333D01*
X128854342Y-94333333D02*
X128949580Y-94380952D01*
X128949580Y-94380952D02*
X128997200Y-94428571D01*
X128997200Y-94428571D02*
X129044819Y-94523809D01*
X129044819Y-94523809D02*
X129044819Y-94809523D01*
X129044819Y-94809523D02*
X128997200Y-94904761D01*
X128997200Y-94904761D02*
X128949580Y-94952380D01*
X135666666Y-106059819D02*
X135666666Y-106774104D01*
X135666666Y-106774104D02*
X135619047Y-106916961D01*
X135619047Y-106916961D02*
X135523809Y-107012200D01*
X135523809Y-107012200D02*
X135380952Y-107059819D01*
X135380952Y-107059819D02*
X135285714Y-107059819D01*
X136095238Y-106155057D02*
X136142857Y-106107438D01*
X136142857Y-106107438D02*
X136238095Y-106059819D01*
X136238095Y-106059819D02*
X136476190Y-106059819D01*
X136476190Y-106059819D02*
X136571428Y-106107438D01*
X136571428Y-106107438D02*
X136619047Y-106155057D01*
X136619047Y-106155057D02*
X136666666Y-106250295D01*
X136666666Y-106250295D02*
X136666666Y-106345533D01*
X136666666Y-106345533D02*
X136619047Y-106488390D01*
X136619047Y-106488390D02*
X136047619Y-107059819D01*
X136047619Y-107059819D02*
X136666666Y-107059819D01*
X156364819Y-122833333D02*
X157079104Y-122833333D01*
X157079104Y-122833333D02*
X157221961Y-122880952D01*
X157221961Y-122880952D02*
X157317200Y-122976190D01*
X157317200Y-122976190D02*
X157364819Y-123119047D01*
X157364819Y-123119047D02*
X157364819Y-123214285D01*
X157364819Y-121833333D02*
X157364819Y-122404761D01*
X157364819Y-122119047D02*
X156364819Y-122119047D01*
X156364819Y-122119047D02*
X156507676Y-122214285D01*
X156507676Y-122214285D02*
X156602914Y-122309523D01*
X156602914Y-122309523D02*
X156650533Y-122404761D01*
X135774819Y-112166666D02*
X135298628Y-112499999D01*
X135774819Y-112738094D02*
X134774819Y-112738094D01*
X134774819Y-112738094D02*
X134774819Y-112357142D01*
X134774819Y-112357142D02*
X134822438Y-112261904D01*
X134822438Y-112261904D02*
X134870057Y-112214285D01*
X134870057Y-112214285D02*
X134965295Y-112166666D01*
X134965295Y-112166666D02*
X135108152Y-112166666D01*
X135108152Y-112166666D02*
X135203390Y-112214285D01*
X135203390Y-112214285D02*
X135251009Y-112261904D01*
X135251009Y-112261904D02*
X135298628Y-112357142D01*
X135298628Y-112357142D02*
X135298628Y-112738094D01*
X135774819Y-111214285D02*
X135774819Y-111785713D01*
X135774819Y-111499999D02*
X134774819Y-111499999D01*
X134774819Y-111499999D02*
X134917676Y-111595237D01*
X134917676Y-111595237D02*
X135012914Y-111690475D01*
X135012914Y-111690475D02*
X135060533Y-111785713D01*
X148238095Y-110504819D02*
X148238095Y-111314342D01*
X148238095Y-111314342D02*
X148285714Y-111409580D01*
X148285714Y-111409580D02*
X148333333Y-111457200D01*
X148333333Y-111457200D02*
X148428571Y-111504819D01*
X148428571Y-111504819D02*
X148619047Y-111504819D01*
X148619047Y-111504819D02*
X148714285Y-111457200D01*
X148714285Y-111457200D02*
X148761904Y-111409580D01*
X148761904Y-111409580D02*
X148809523Y-111314342D01*
X148809523Y-111314342D02*
X148809523Y-110504819D01*
X149809523Y-111504819D02*
X149238095Y-111504819D01*
X149523809Y-111504819D02*
X149523809Y-110504819D01*
X149523809Y-110504819D02*
X149428571Y-110647676D01*
X149428571Y-110647676D02*
X149333333Y-110742914D01*
X149333333Y-110742914D02*
X149238095Y-110790533D01*
X160169104Y-83214285D02*
X160169104Y-82738095D01*
X160454819Y-83309523D02*
X159454819Y-82976190D01*
X159454819Y-82976190D02*
X160454819Y-82642857D01*
X160454819Y-81785714D02*
X160454819Y-82357142D01*
X160454819Y-82071428D02*
X159454819Y-82071428D01*
X159454819Y-82071428D02*
X159597676Y-82166666D01*
X159597676Y-82166666D02*
X159692914Y-82261904D01*
X159692914Y-82261904D02*
X159740533Y-82357142D01*
D11*
%TO.C,D1*%
X129825000Y-101300000D02*
X129825000Y-105185000D01*
X129825000Y-105185000D02*
X132095000Y-105185000D01*
X132095000Y-105185000D02*
X132095000Y-101300000D01*
%TO.C,J3*%
X129590000Y-96330000D02*
X129590000Y-95000000D01*
X130920000Y-96330000D02*
X129590000Y-96330000D01*
X132190000Y-93670000D02*
X137330000Y-93670000D01*
X132190000Y-96330000D02*
X132190000Y-93670000D01*
X132190000Y-96330000D02*
X137330000Y-96330000D01*
X137330000Y-96330000D02*
X137330000Y-93670000D01*
%TO.C,J2*%
X134670000Y-103005000D02*
X134670000Y-100405000D01*
X137330000Y-100405000D02*
X134670000Y-100405000D01*
X137330000Y-103005000D02*
X134670000Y-103005000D01*
X137330000Y-103005000D02*
X137330000Y-100405000D01*
X137330000Y-104275000D02*
X137330000Y-105605000D01*
X137330000Y-105605000D02*
X136000000Y-105605000D01*
%TO.C,J1*%
X148170000Y-121170000D02*
X148170000Y-123830000D01*
X153310000Y-121170000D02*
X148170000Y-121170000D01*
X153310000Y-121170000D02*
X153310000Y-123830000D01*
X153310000Y-123830000D02*
X148170000Y-123830000D01*
X154580000Y-121170000D02*
X155910000Y-121170000D01*
X155910000Y-121170000D02*
X155910000Y-122500000D01*
%TO.C,R1*%
X132590000Y-111272936D02*
X132590000Y-112727064D01*
X134410000Y-111272936D02*
X134410000Y-112727064D01*
%TO.C,U1*%
X149000000Y-111890000D02*
X148200000Y-111890000D01*
X149000000Y-111890000D02*
X149800000Y-111890000D01*
X149000000Y-115010000D02*
X148200000Y-115010000D01*
X149000000Y-115010000D02*
X149800000Y-115010000D01*
X147700000Y-111940000D02*
X147460000Y-111610000D01*
X147940000Y-111610000D01*
X147700000Y-111940000D01*
G36*
X147700000Y-111940000D02*
G01*
X147460000Y-111610000D01*
X147940000Y-111610000D01*
X147700000Y-111940000D01*
G37*
%TO.C,A1*%
X110700000Y-62255000D02*
X110700000Y-126905000D01*
X110700000Y-126905000D02*
X112350000Y-128555000D01*
X112350000Y-128555000D02*
X123780000Y-128555000D01*
X120230000Y-55905000D02*
X120230000Y-62255000D01*
X120230000Y-62255000D02*
X110700000Y-62255000D01*
X123780000Y-128555000D02*
X126320000Y-131095000D01*
X126320000Y-131095000D02*
X159090000Y-131095000D01*
X131910000Y-55905000D02*
X120230000Y-55905000D01*
X131910000Y-62255000D02*
X131910000Y-55905000D01*
X151980000Y-60355000D02*
X151980000Y-62255000D01*
X151980000Y-62255000D02*
X131910000Y-62255000D01*
X159090000Y-131095000D02*
X161630000Y-128555000D01*
X161120000Y-60355000D02*
X151980000Y-60355000D01*
X161120000Y-62255000D02*
X161120000Y-60355000D01*
X161630000Y-128555000D02*
X164300000Y-128555000D01*
X164300000Y-62255000D02*
X161120000Y-62255000D01*
X164300000Y-128555000D02*
X164300000Y-62255000D01*
%TD*%
M02*
