%TF.GenerationSoftware,KiCad,Pcbnew,8.0.5*%
%TF.CreationDate,2024-11-11T20:44:43+01:00*%
%TF.ProjectId,nowa_plytka,6e6f7761-5f70-46c7-9974-6b612e6b6963,rev?*%
%TF.SameCoordinates,Original*%
%TF.FileFunction,Soldermask,Top*%
%TF.FilePolarity,Negative*%
%FSLAX46Y46*%
G04 Gerber Fmt 4.6, Leading zero omitted, Abs format (unit mm)*
G04 Created by KiCad (PCBNEW 8.0.5) date 2024-11-11 20:44:43*
%MOMM*%
%LPD*%
G01*
G04 APERTURE LIST*
G04 Aperture macros list*
%AMRoundRect*
0 Rectangle with rounded corners*
0 $1 Rounding radius*
0 $2 $3 $4 $5 $6 $7 $8 $9 X,Y pos of 4 corners*
0 Add a 4 corners polygon primitive as box body*
4,1,4,$2,$3,$4,$5,$6,$7,$8,$9,$2,$3,0*
0 Add four circle primitives for the rounded corners*
1,1,$1+$1,$2,$3*
1,1,$1+$1,$4,$5*
1,1,$1+$1,$6,$7*
1,1,$1+$1,$8,$9*
0 Add four rect primitives between the rounded corners*
20,1,$1+$1,$2,$3,$4,$5,0*
20,1,$1+$1,$4,$5,$6,$7,0*
20,1,$1+$1,$6,$7,$8,$9,0*
20,1,$1+$1,$8,$9,$2,$3,0*%
G04 Aperture macros list end*
%ADD10RoundRect,0.250000X0.625000X-0.375000X0.625000X0.375000X-0.625000X0.375000X-0.625000X-0.375000X0*%
%ADD11R,1.700000X1.700000*%
%ADD12O,1.700000X1.700000*%
%ADD13RoundRect,0.250000X-0.625000X0.312500X-0.625000X-0.312500X0.625000X-0.312500X0.625000X0.312500X0*%
%ADD14RoundRect,0.150000X-0.512500X-0.150000X0.512500X-0.150000X0.512500X0.150000X-0.512500X0.150000X0*%
%ADD15R,1.600000X1.600000*%
%ADD16O,1.600000X1.600000*%
G04 APERTURE END LIST*
D10*
%TO.C,D1*%
X130960000Y-104300000D03*
X130960000Y-101500000D03*
%TD*%
D11*
%TO.C,J3*%
X130920000Y-95000000D03*
D12*
X133460000Y-95000000D03*
X136000000Y-95000000D03*
%TD*%
D11*
%TO.C,J2*%
X136000000Y-104275000D03*
D12*
X136000000Y-101735000D03*
%TD*%
D11*
%TO.C,J1*%
X154580000Y-122500000D03*
D12*
X152040000Y-122500000D03*
X149500000Y-122500000D03*
%TD*%
D13*
%TO.C,R1*%
X133500000Y-110537500D03*
X133500000Y-113462500D03*
%TD*%
D14*
%TO.C,U1*%
X147862500Y-112500000D03*
X147862500Y-113450000D03*
X147862500Y-114400000D03*
X150137500Y-114400000D03*
X150137500Y-112500000D03*
%TD*%
D15*
%TO.C,A1*%
X161630000Y-90325000D03*
D16*
X161630000Y-92865000D03*
X161630000Y-95405000D03*
X161630000Y-97945000D03*
X161630000Y-100485000D03*
X161630000Y-103025000D03*
X161630000Y-105565000D03*
X161630000Y-108105000D03*
X161630000Y-113185000D03*
X161630000Y-115725000D03*
X161630000Y-118265000D03*
X161630000Y-120805000D03*
X161630000Y-123345000D03*
X161630000Y-125885000D03*
X113370000Y-125885000D03*
X113370000Y-123345000D03*
X113370000Y-120805000D03*
X113370000Y-118265000D03*
X113370000Y-115725000D03*
X113370000Y-113185000D03*
X113370000Y-110645000D03*
X113370000Y-108105000D03*
X113370000Y-104045000D03*
X113370000Y-101505000D03*
X113370000Y-98965000D03*
X113370000Y-96425000D03*
X113370000Y-93885000D03*
X113370000Y-91345000D03*
X113370000Y-88805000D03*
X113370000Y-86265000D03*
X113370000Y-83725000D03*
X113370000Y-81185000D03*
%TD*%
M02*
