M48
; DRILL file {KiCad 8.0.5} date 2024-10-30T21:55:22+0100
; FORMAT={-:-/ absolute / inch / decimal}
; #@! TF.CreationDate,2024-10-30T21:55:22+01:00
; #@! TF.GenerationSoftware,Kicad,Pcbnew,8.0.5
; #@! TF.FileFunction,Plated,1,2,PTH
FMAT,2
INCH
; #@! TA.AperFunction,Plated,PTH,ViaDrill
T1C0.0118
; #@! TA.AperFunction,Plated,PTH,ComponentDrill
T2C0.0394
%
G90
G05
T1
X4.2913Y-3.5827
X4.2913Y-3.7977
X4.8819Y-2.5591
X5.2362Y-2.4606
X5.4134Y-2.4606
T2
X4.1236Y-2.337
X4.1236Y-2.437
X4.1236Y-2.537
X4.1236Y-2.637
X4.1236Y-2.737
X4.1236Y-2.837
X4.1236Y-2.937
X4.1236Y-3.037
X4.1236Y-3.137
X4.1236Y-3.237
X4.1236Y-3.337
X4.1236Y-3.437
X4.1236Y-3.537
X4.1236Y-3.637
X4.1236Y-3.737
X4.1236Y-3.837
X4.1236Y-3.937
X4.2904Y-2.0265
X4.3904Y-2.0265
X4.4904Y-2.0265
X4.9Y-2.8346
X4.9984Y-2.3508
X4.9984Y-2.4508
X5.0Y-2.8346
X5.0984Y-2.3508
X5.0984Y-2.4508
X5.1Y-2.8346
X5.4124Y-3.3169
X5.4124Y-3.4169
X6.0236Y-1.9882
X6.0236Y-2.1941
X6.0236Y-2.2941
X6.0236Y-2.3941
X6.0236Y-2.4941
X6.0236Y-2.5941
X6.0236Y-2.6941
X6.0236Y-2.7941
X6.0236Y-2.8941
X6.0236Y-2.9941
X6.0236Y-3.0941
X6.0236Y-3.2567
X6.0236Y-3.3567
X6.0236Y-3.4567
X6.0236Y-3.5567
X6.0236Y-3.6567
X6.0236Y-3.7567
X6.0236Y-3.8567
X6.0236Y-3.9567
M30
