%TF.GenerationSoftware,KiCad,Pcbnew,8.0.5*%
%TF.CreationDate,2024-10-30T21:55:18+01:00*%
%TF.ProjectId,p_ytka,70427974-6b61-42e6-9b69-6361645f7063,rev?*%
%TF.SameCoordinates,Original*%
%TF.FileFunction,Copper,L2,Bot*%
%TF.FilePolarity,Positive*%
%FSLAX46Y46*%
G04 Gerber Fmt 4.6, Leading zero omitted, Abs format (unit mm)*
G04 Created by KiCad (PCBNEW 8.0.5) date 2024-10-30 21:55:18*
%MOMM*%
%LPD*%
G01*
G04 APERTURE LIST*
%TA.AperFunction,ComponentPad*%
%ADD10R,1.700000X1.700000*%
%TD*%
%TA.AperFunction,ComponentPad*%
%ADD11O,1.700000X1.700000*%
%TD*%
%TA.AperFunction,ViaPad*%
%ADD12C,0.600000*%
%TD*%
%TA.AperFunction,Conductor*%
%ADD13C,0.200000*%
%TD*%
G04 APERTURE END LIST*
D10*
%TO.P,J3,1*%
%TO.N,LED2_IN*%
X137475000Y-84250000D03*
D11*
%TO.P,J3,2*%
%TO.N,ADC*%
X137475000Y-86790000D03*
%TD*%
D10*
%TO.P,REF\u002A\u002A,1*%
%TO.N,DAC_OUT*%
X153000000Y-50500000D03*
%TD*%
%TO.P,REF\u002A\u002A,1*%
%TO.N,N/C*%
X104740000Y-59360000D03*
D11*
%TO.P,REF\u002A\u002A,2*%
X104740000Y-61900000D03*
%TO.P,REF\u002A\u002A,3*%
X104740000Y-64440000D03*
%TO.P,REF\u002A\u002A,4*%
X104740000Y-66980000D03*
%TO.P,REF\u002A\u002A,5*%
X104740000Y-69520000D03*
%TO.P,REF\u002A\u002A,6*%
X104740000Y-72060000D03*
%TO.P,REF\u002A\u002A,7*%
X104740000Y-74600000D03*
%TO.P,REF\u002A\u002A,8*%
X104740000Y-77140000D03*
%TO.P,REF\u002A\u002A,9*%
X104740000Y-79680000D03*
%TO.P,REF\u002A\u002A,10*%
X104740000Y-82220000D03*
%TO.P,REF\u002A\u002A,11*%
X104740000Y-84760000D03*
%TO.P,REF\u002A\u002A,12*%
X104740000Y-87300000D03*
%TO.P,REF\u002A\u002A,13*%
X104740000Y-89840000D03*
%TO.P,REF\u002A\u002A,14*%
X104740000Y-92380000D03*
%TO.P,REF\u002A\u002A,15*%
X104740000Y-94920000D03*
%TO.P,REF\u002A\u002A,16*%
%TO.N,ADC*%
X104740000Y-97460000D03*
%TO.P,REF\u002A\u002A,17*%
%TO.N,GND*%
X104740000Y-100000000D03*
%TD*%
D10*
%TO.P,J4,1*%
%TO.N,INPUT*%
X124460000Y-72000000D03*
D11*
%TO.P,J4,2*%
X127000000Y-72000000D03*
%TO.P,J4,3*%
%TO.N,LED2_IN*%
X129540000Y-72000000D03*
%TD*%
D10*
%TO.P,J2,1*%
%TO.N,GND*%
X108975000Y-51474000D03*
D11*
%TO.P,J2,2*%
%TO.N,OPAMP_OUT*%
X111515000Y-51474000D03*
%TO.P,J2,3*%
%TO.N,DAC_OUT*%
X114055000Y-51474000D03*
%TD*%
D10*
%TO.P,REF\u002A\u002A,1*%
%TO.N,N/C*%
X153000000Y-55730000D03*
D11*
%TO.P,REF\u002A\u002A,2*%
X153000000Y-58270000D03*
%TO.P,REF\u002A\u002A,3*%
X153000000Y-60810000D03*
%TO.P,REF\u002A\u002A,4*%
X153000000Y-63350000D03*
%TO.P,REF\u002A\u002A,5*%
X153000000Y-65890000D03*
%TO.P,REF\u002A\u002A,6*%
%TO.N,OPAMP_OUT*%
X153000000Y-68430000D03*
%TO.P,REF\u002A\u002A,7*%
%TO.N,OPAMP_IN*%
X153000000Y-70970000D03*
%TO.P,REF\u002A\u002A,8*%
%TO.N,N/C*%
X153000000Y-73510000D03*
%TO.P,REF\u002A\u002A,9*%
X153000000Y-76050000D03*
%TO.P,REF\u002A\u002A,10*%
X153000000Y-78590000D03*
%TD*%
D10*
%TO.P,REF\u002A\u002A,1*%
%TO.N,N/C*%
X153000000Y-82720000D03*
D11*
%TO.P,REF\u002A\u002A,2*%
X153000000Y-85260000D03*
%TO.P,REF\u002A\u002A,3*%
X153000000Y-87800000D03*
%TO.P,REF\u002A\u002A,4*%
X153000000Y-90340000D03*
%TO.P,REF\u002A\u002A,5*%
X153000000Y-92880000D03*
%TO.P,REF\u002A\u002A,6*%
X153000000Y-95420000D03*
%TO.P,REF\u002A\u002A,7*%
X153000000Y-97960000D03*
%TO.P,REF\u002A\u002A,8*%
X153000000Y-100500000D03*
%TD*%
D10*
%TO.P,J1,1*%
%TO.N,DAC_OUT*%
X126960000Y-59710000D03*
D11*
%TO.P,J1,2*%
%TO.N,OPAMP_IN*%
X129500000Y-59710000D03*
%TO.P,J1,3*%
%TO.N,INPUT*%
X126960000Y-62250000D03*
%TO.P,J1,4*%
%TO.N,OPAMP_OUT*%
X129500000Y-62250000D03*
%TD*%
D12*
%TO.N,GND*%
X109000000Y-91000000D03*
X109000000Y-96462500D03*
%TO.N,OPAMP_OUT*%
X124000000Y-65000000D03*
X137500000Y-62500000D03*
X133000000Y-62500000D03*
%TD*%
D13*
%TO.N,GND*%
X109000000Y-96462500D02*
X109000000Y-91000000D01*
%TO.N,OPAMP_OUT*%
X133000000Y-62500000D02*
X133000000Y-64500000D01*
X137500000Y-62500000D02*
X133000000Y-62500000D01*
X133000000Y-64500000D02*
X132500000Y-65000000D01*
X132500000Y-65000000D02*
X124000000Y-65000000D01*
%TD*%
M02*
