%TF.GenerationSoftware,KiCad,Pcbnew,8.0.5*%
%TF.CreationDate,2024-10-18T20:24:32+02:00*%
%TF.ProjectId,p_ytka,70427974-6b61-42e6-9b69-6361645f7063,rev?*%
%TF.SameCoordinates,Original*%
%TF.FileFunction,Legend,Top*%
%TF.FilePolarity,Positive*%
%FSLAX46Y46*%
G04 Gerber Fmt 4.6, Leading zero omitted, Abs format (unit mm)*
G04 Created by KiCad (PCBNEW 8.0.5) date 2024-10-18 20:24:32*
%MOMM*%
%LPD*%
G01*
G04 APERTURE LIST*
%ADD10C,0.150000*%
%ADD11C,0.120000*%
G04 APERTURE END LIST*
D10*
X126134819Y-82238094D02*
X125134819Y-82238094D01*
X125134819Y-82238094D02*
X125134819Y-81999999D01*
X125134819Y-81999999D02*
X125182438Y-81857142D01*
X125182438Y-81857142D02*
X125277676Y-81761904D01*
X125277676Y-81761904D02*
X125372914Y-81714285D01*
X125372914Y-81714285D02*
X125563390Y-81666666D01*
X125563390Y-81666666D02*
X125706247Y-81666666D01*
X125706247Y-81666666D02*
X125896723Y-81714285D01*
X125896723Y-81714285D02*
X125991961Y-81761904D01*
X125991961Y-81761904D02*
X126087200Y-81857142D01*
X126087200Y-81857142D02*
X126134819Y-81999999D01*
X126134819Y-81999999D02*
X126134819Y-82238094D01*
X126134819Y-80714285D02*
X126134819Y-81285713D01*
X126134819Y-80999999D02*
X125134819Y-80999999D01*
X125134819Y-80999999D02*
X125277676Y-81095237D01*
X125277676Y-81095237D02*
X125372914Y-81190475D01*
X125372914Y-81190475D02*
X125420533Y-81285713D01*
X129774819Y-71449166D02*
X129298628Y-71782499D01*
X129774819Y-72020594D02*
X128774819Y-72020594D01*
X128774819Y-72020594D02*
X128774819Y-71639642D01*
X128774819Y-71639642D02*
X128822438Y-71544404D01*
X128822438Y-71544404D02*
X128870057Y-71496785D01*
X128870057Y-71496785D02*
X128965295Y-71449166D01*
X128965295Y-71449166D02*
X129108152Y-71449166D01*
X129108152Y-71449166D02*
X129203390Y-71496785D01*
X129203390Y-71496785D02*
X129251009Y-71544404D01*
X129251009Y-71544404D02*
X129298628Y-71639642D01*
X129298628Y-71639642D02*
X129298628Y-72020594D01*
X129774819Y-70496785D02*
X129774819Y-71068213D01*
X129774819Y-70782499D02*
X128774819Y-70782499D01*
X128774819Y-70782499D02*
X128917676Y-70877737D01*
X128917676Y-70877737D02*
X129012914Y-70972975D01*
X129012914Y-70972975D02*
X129060533Y-71068213D01*
X104166666Y-56954819D02*
X103833333Y-56478628D01*
X103595238Y-56954819D02*
X103595238Y-55954819D01*
X103595238Y-55954819D02*
X103976190Y-55954819D01*
X103976190Y-55954819D02*
X104071428Y-56002438D01*
X104071428Y-56002438D02*
X104119047Y-56050057D01*
X104119047Y-56050057D02*
X104166666Y-56145295D01*
X104166666Y-56145295D02*
X104166666Y-56288152D01*
X104166666Y-56288152D02*
X104119047Y-56383390D01*
X104119047Y-56383390D02*
X104071428Y-56431009D01*
X104071428Y-56431009D02*
X103976190Y-56478628D01*
X103976190Y-56478628D02*
X103595238Y-56478628D01*
X104595238Y-56431009D02*
X104928571Y-56431009D01*
X105071428Y-56954819D02*
X104595238Y-56954819D01*
X104595238Y-56954819D02*
X104595238Y-55954819D01*
X104595238Y-55954819D02*
X105071428Y-55954819D01*
X105833333Y-56431009D02*
X105500000Y-56431009D01*
X105500000Y-56954819D02*
X105500000Y-55954819D01*
X105500000Y-55954819D02*
X105976190Y-55954819D01*
X106500000Y-55954819D02*
X106500000Y-56192914D01*
X106261905Y-56097676D02*
X106500000Y-56192914D01*
X106500000Y-56192914D02*
X106738095Y-56097676D01*
X106357143Y-56383390D02*
X106500000Y-56192914D01*
X106500000Y-56192914D02*
X106642857Y-56383390D01*
X107261905Y-55954819D02*
X107261905Y-56192914D01*
X107023810Y-56097676D02*
X107261905Y-56192914D01*
X107261905Y-56192914D02*
X107500000Y-56097676D01*
X107119048Y-56383390D02*
X107261905Y-56192914D01*
X107261905Y-56192914D02*
X107404762Y-56383390D01*
X147666666Y-83454819D02*
X147333333Y-82978628D01*
X147095238Y-83454819D02*
X147095238Y-82454819D01*
X147095238Y-82454819D02*
X147476190Y-82454819D01*
X147476190Y-82454819D02*
X147571428Y-82502438D01*
X147571428Y-82502438D02*
X147619047Y-82550057D01*
X147619047Y-82550057D02*
X147666666Y-82645295D01*
X147666666Y-82645295D02*
X147666666Y-82788152D01*
X147666666Y-82788152D02*
X147619047Y-82883390D01*
X147619047Y-82883390D02*
X147571428Y-82931009D01*
X147571428Y-82931009D02*
X147476190Y-82978628D01*
X147476190Y-82978628D02*
X147095238Y-82978628D01*
X148095238Y-82931009D02*
X148428571Y-82931009D01*
X148571428Y-83454819D02*
X148095238Y-83454819D01*
X148095238Y-83454819D02*
X148095238Y-82454819D01*
X148095238Y-82454819D02*
X148571428Y-82454819D01*
X149333333Y-82931009D02*
X149000000Y-82931009D01*
X149000000Y-83454819D02*
X149000000Y-82454819D01*
X149000000Y-82454819D02*
X149476190Y-82454819D01*
X150000000Y-82454819D02*
X150000000Y-82692914D01*
X149761905Y-82597676D02*
X150000000Y-82692914D01*
X150000000Y-82692914D02*
X150238095Y-82597676D01*
X149857143Y-82883390D02*
X150000000Y-82692914D01*
X150000000Y-82692914D02*
X150142857Y-82883390D01*
X150761905Y-82454819D02*
X150761905Y-82692914D01*
X150523810Y-82597676D02*
X150761905Y-82692914D01*
X150761905Y-82692914D02*
X151000000Y-82597676D01*
X150619048Y-82883390D02*
X150761905Y-82692914D01*
X150761905Y-82692914D02*
X150904762Y-82883390D01*
X124934819Y-64813333D02*
X124458628Y-65146666D01*
X124934819Y-65384761D02*
X123934819Y-65384761D01*
X123934819Y-65384761D02*
X123934819Y-65003809D01*
X123934819Y-65003809D02*
X123982438Y-64908571D01*
X123982438Y-64908571D02*
X124030057Y-64860952D01*
X124030057Y-64860952D02*
X124125295Y-64813333D01*
X124125295Y-64813333D02*
X124268152Y-64813333D01*
X124268152Y-64813333D02*
X124363390Y-64860952D01*
X124363390Y-64860952D02*
X124411009Y-64908571D01*
X124411009Y-64908571D02*
X124458628Y-65003809D01*
X124458628Y-65003809D02*
X124458628Y-65384761D01*
X124411009Y-64384761D02*
X124411009Y-64051428D01*
X124934819Y-63908571D02*
X124934819Y-64384761D01*
X124934819Y-64384761D02*
X123934819Y-64384761D01*
X123934819Y-64384761D02*
X123934819Y-63908571D01*
X124411009Y-63146666D02*
X124411009Y-63479999D01*
X124934819Y-63479999D02*
X123934819Y-63479999D01*
X123934819Y-63479999D02*
X123934819Y-63003809D01*
X123934819Y-62479999D02*
X124172914Y-62479999D01*
X124077676Y-62718094D02*
X124172914Y-62479999D01*
X124172914Y-62479999D02*
X124077676Y-62241904D01*
X124363390Y-62622856D02*
X124172914Y-62479999D01*
X124172914Y-62479999D02*
X124363390Y-62337142D01*
X123934819Y-61718094D02*
X124172914Y-61718094D01*
X124077676Y-61956189D02*
X124172914Y-61718094D01*
X124172914Y-61718094D02*
X124077676Y-61479999D01*
X124363390Y-61860951D02*
X124172914Y-61718094D01*
X124172914Y-61718094D02*
X124363390Y-61575237D01*
X148166666Y-54454819D02*
X147833333Y-53978628D01*
X147595238Y-54454819D02*
X147595238Y-53454819D01*
X147595238Y-53454819D02*
X147976190Y-53454819D01*
X147976190Y-53454819D02*
X148071428Y-53502438D01*
X148071428Y-53502438D02*
X148119047Y-53550057D01*
X148119047Y-53550057D02*
X148166666Y-53645295D01*
X148166666Y-53645295D02*
X148166666Y-53788152D01*
X148166666Y-53788152D02*
X148119047Y-53883390D01*
X148119047Y-53883390D02*
X148071428Y-53931009D01*
X148071428Y-53931009D02*
X147976190Y-53978628D01*
X147976190Y-53978628D02*
X147595238Y-53978628D01*
X148595238Y-53931009D02*
X148928571Y-53931009D01*
X149071428Y-54454819D02*
X148595238Y-54454819D01*
X148595238Y-54454819D02*
X148595238Y-53454819D01*
X148595238Y-53454819D02*
X149071428Y-53454819D01*
X149833333Y-53931009D02*
X149500000Y-53931009D01*
X149500000Y-54454819D02*
X149500000Y-53454819D01*
X149500000Y-53454819D02*
X149976190Y-53454819D01*
X150500000Y-53454819D02*
X150500000Y-53692914D01*
X150261905Y-53597676D02*
X150500000Y-53692914D01*
X150500000Y-53692914D02*
X150738095Y-53597676D01*
X150357143Y-53883390D02*
X150500000Y-53692914D01*
X150500000Y-53692914D02*
X150642857Y-53883390D01*
X151261905Y-53454819D02*
X151261905Y-53692914D01*
X151023810Y-53597676D02*
X151261905Y-53692914D01*
X151261905Y-53692914D02*
X151500000Y-53597676D01*
X151119048Y-53883390D02*
X151261905Y-53692914D01*
X151261905Y-53692914D02*
X151404762Y-53883390D01*
D11*
%TO.C,D1*%
X126365000Y-79900000D02*
X126365000Y-83785000D01*
X126365000Y-83785000D02*
X128635000Y-83785000D01*
X128635000Y-83785000D02*
X128635000Y-79900000D01*
%TO.C,R1*%
X126590000Y-70555436D02*
X126590000Y-72009564D01*
X128410000Y-70555436D02*
X128410000Y-72009564D01*
%TO.C,REF\u002A\u002A*%
X106070000Y-60630000D02*
X106070000Y-101330000D01*
X106070000Y-58030000D02*
X106070000Y-59360000D01*
X104740000Y-58030000D02*
X106070000Y-58030000D01*
X103410000Y-101330000D02*
X106070000Y-101330000D01*
X103410000Y-60630000D02*
X106070000Y-60630000D01*
X103410000Y-60630000D02*
X103410000Y-101330000D01*
X151670000Y-83990000D02*
X151670000Y-101830000D01*
X151670000Y-83990000D02*
X154330000Y-83990000D01*
X151670000Y-101830000D02*
X154330000Y-101830000D01*
X153000000Y-81390000D02*
X154330000Y-81390000D01*
X154330000Y-81390000D02*
X154330000Y-82720000D01*
X154330000Y-83990000D02*
X154330000Y-101830000D01*
X131120000Y-66080000D02*
X131120000Y-60880000D01*
X128520000Y-63480000D02*
X128520000Y-60880000D01*
X128520000Y-60880000D02*
X131120000Y-60880000D01*
X125920000Y-66080000D02*
X131120000Y-66080000D01*
X125920000Y-66080000D02*
X125920000Y-63480000D01*
X125920000Y-63480000D02*
X128520000Y-63480000D01*
X125920000Y-62210000D02*
X125920000Y-60880000D01*
X125920000Y-60880000D02*
X127250000Y-60880000D01*
X151670000Y-54530000D02*
X151670000Y-79990000D01*
X151670000Y-54530000D02*
X154330000Y-54530000D01*
X151670000Y-79990000D02*
X154330000Y-79990000D01*
X153000000Y-51930000D02*
X154330000Y-51930000D01*
X154330000Y-51930000D02*
X154330000Y-53260000D01*
X154330000Y-54530000D02*
X154330000Y-79990000D01*
%TD*%
M02*
