%TF.GenerationSoftware,KiCad,Pcbnew,8.0.5*%
%TF.CreationDate,2024-10-30T21:55:21+01:00*%
%TF.ProjectId,p_ytka,70427974-6b61-42e6-9b69-6361645f7063,rev?*%
%TF.SameCoordinates,Original*%
%TF.FileFunction,Drillmap*%
%TF.FilePolarity,Positive*%
%FSLAX45Y45*%
G04 Gerber Fmt 4.5, Leading zero omitted, Abs format (unit mm)*
G04 Created by KiCad (PCBNEW 8.0.5) date 2024-10-30 21:55:21*
%MOMM*%
%LPD*%
G01*
G04 APERTURE LIST*
%ADD10C,0.050000*%
%ADD11C,0.200000*%
G04 APERTURE END LIST*
D10*
X10250000Y-4800000D02*
X15600000Y-4800000D01*
X15600000Y-10300000D01*
X10250000Y-10300000D01*
X10250000Y-4800000D01*
D11*
X10508277Y-10613984D02*
X10508277Y-10413984D01*
X10508277Y-10413984D02*
X10555896Y-10413984D01*
X10555896Y-10413984D02*
X10584467Y-10423508D01*
X10584467Y-10423508D02*
X10603515Y-10442555D01*
X10603515Y-10442555D02*
X10613039Y-10461603D01*
X10613039Y-10461603D02*
X10622563Y-10499698D01*
X10622563Y-10499698D02*
X10622563Y-10528270D01*
X10622563Y-10528270D02*
X10613039Y-10566365D01*
X10613039Y-10566365D02*
X10603515Y-10585412D01*
X10603515Y-10585412D02*
X10584467Y-10604460D01*
X10584467Y-10604460D02*
X10555896Y-10613984D01*
X10555896Y-10613984D02*
X10508277Y-10613984D01*
X10708277Y-10613984D02*
X10708277Y-10480650D01*
X10708277Y-10518746D02*
X10717801Y-10499698D01*
X10717801Y-10499698D02*
X10727324Y-10490174D01*
X10727324Y-10490174D02*
X10746372Y-10480650D01*
X10746372Y-10480650D02*
X10765420Y-10480650D01*
X10832086Y-10613984D02*
X10832086Y-10480650D01*
X10832086Y-10413984D02*
X10822563Y-10423508D01*
X10822563Y-10423508D02*
X10832086Y-10433031D01*
X10832086Y-10433031D02*
X10841610Y-10423508D01*
X10841610Y-10423508D02*
X10832086Y-10413984D01*
X10832086Y-10413984D02*
X10832086Y-10433031D01*
X10955896Y-10613984D02*
X10936848Y-10604460D01*
X10936848Y-10604460D02*
X10927324Y-10585412D01*
X10927324Y-10585412D02*
X10927324Y-10413984D01*
X11060658Y-10613984D02*
X11041610Y-10604460D01*
X11041610Y-10604460D02*
X11032086Y-10585412D01*
X11032086Y-10585412D02*
X11032086Y-10413984D01*
X11289229Y-10613984D02*
X11289229Y-10413984D01*
X11289229Y-10413984D02*
X11355896Y-10556841D01*
X11355896Y-10556841D02*
X11422562Y-10413984D01*
X11422562Y-10413984D02*
X11422562Y-10613984D01*
X11603515Y-10613984D02*
X11603515Y-10509222D01*
X11603515Y-10509222D02*
X11593991Y-10490174D01*
X11593991Y-10490174D02*
X11574943Y-10480650D01*
X11574943Y-10480650D02*
X11536848Y-10480650D01*
X11536848Y-10480650D02*
X11517801Y-10490174D01*
X11603515Y-10604460D02*
X11584467Y-10613984D01*
X11584467Y-10613984D02*
X11536848Y-10613984D01*
X11536848Y-10613984D02*
X11517801Y-10604460D01*
X11517801Y-10604460D02*
X11508277Y-10585412D01*
X11508277Y-10585412D02*
X11508277Y-10566365D01*
X11508277Y-10566365D02*
X11517801Y-10547317D01*
X11517801Y-10547317D02*
X11536848Y-10537793D01*
X11536848Y-10537793D02*
X11584467Y-10537793D01*
X11584467Y-10537793D02*
X11603515Y-10528270D01*
X11698753Y-10480650D02*
X11698753Y-10680650D01*
X11698753Y-10490174D02*
X11717801Y-10480650D01*
X11717801Y-10480650D02*
X11755896Y-10480650D01*
X11755896Y-10480650D02*
X11774943Y-10490174D01*
X11774943Y-10490174D02*
X11784467Y-10499698D01*
X11784467Y-10499698D02*
X11793991Y-10518746D01*
X11793991Y-10518746D02*
X11793991Y-10575889D01*
X11793991Y-10575889D02*
X11784467Y-10594936D01*
X11784467Y-10594936D02*
X11774943Y-10604460D01*
X11774943Y-10604460D02*
X11755896Y-10613984D01*
X11755896Y-10613984D02*
X11717801Y-10613984D01*
X11717801Y-10613984D02*
X11698753Y-10604460D01*
X11879705Y-10594936D02*
X11889229Y-10604460D01*
X11889229Y-10604460D02*
X11879705Y-10613984D01*
X11879705Y-10613984D02*
X11870182Y-10604460D01*
X11870182Y-10604460D02*
X11879705Y-10594936D01*
X11879705Y-10594936D02*
X11879705Y-10613984D01*
X11879705Y-10490174D02*
X11889229Y-10499698D01*
X11889229Y-10499698D02*
X11879705Y-10509222D01*
X11879705Y-10509222D02*
X11870182Y-10499698D01*
X11870182Y-10499698D02*
X11879705Y-10490174D01*
X11879705Y-10490174D02*
X11879705Y-10509222D01*
M02*
