%TF.GenerationSoftware,KiCad,Pcbnew,8.0.5*%
%TF.CreationDate,2024-11-11T20:44:43+01:00*%
%TF.ProjectId,nowa_plytka,6e6f7761-5f70-46c7-9974-6b612e6b6963,rev?*%
%TF.SameCoordinates,Original*%
%TF.FileFunction,Copper,L2,Bot*%
%TF.FilePolarity,Positive*%
%FSLAX46Y46*%
G04 Gerber Fmt 4.6, Leading zero omitted, Abs format (unit mm)*
G04 Created by KiCad (PCBNEW 8.0.5) date 2024-11-11 20:44:43*
%MOMM*%
%LPD*%
G01*
G04 APERTURE LIST*
%TA.AperFunction,ComponentPad*%
%ADD10R,1.700000X1.700000*%
%TD*%
%TA.AperFunction,ComponentPad*%
%ADD11O,1.700000X1.700000*%
%TD*%
%TA.AperFunction,ComponentPad*%
%ADD12R,1.600000X1.600000*%
%TD*%
%TA.AperFunction,ComponentPad*%
%ADD13O,1.600000X1.600000*%
%TD*%
%TA.AperFunction,ViaPad*%
%ADD14C,0.600000*%
%TD*%
%TA.AperFunction,Conductor*%
%ADD15C,0.200000*%
%TD*%
G04 APERTURE END LIST*
D10*
%TO.P,J3,1,Pin_1*%
%TO.N,INPUT*%
X130920000Y-95000000D03*
D11*
%TO.P,J3,2,Pin_2*%
X133460000Y-95000000D03*
%TO.P,J3,3,Pin_3*%
%TO.N,LED2_IN*%
X136000000Y-95000000D03*
%TD*%
D10*
%TO.P,J2,1,Pin_1*%
%TO.N,ADC*%
X136000000Y-104275000D03*
D11*
%TO.P,J2,2,Pin_2*%
%TO.N,LED2_IN*%
X136000000Y-101735000D03*
%TD*%
D10*
%TO.P,J1,1,Pin_1*%
%TO.N,DAC_OUT*%
X154580000Y-122500000D03*
D11*
%TO.P,J1,2,Pin_2*%
%TO.N,ADC*%
X152040000Y-122500000D03*
%TO.P,J1,3,Pin_3*%
%TO.N,GND*%
X149500000Y-122500000D03*
%TD*%
D12*
%TO.P,A1,1,NC*%
%TO.N,unconnected-(A1-NC-Pad1)*%
X161630000Y-90325000D03*
D13*
%TO.P,A1,2,IOREF*%
%TO.N,unconnected-(A1-IOREF-Pad2)*%
X161630000Y-92865000D03*
%TO.P,A1,3,~{RESET}*%
%TO.N,unconnected-(A1-~{RESET}-Pad3)*%
X161630000Y-95405000D03*
%TO.P,A1,4,3V3*%
%TO.N,Net-(A1-3V3)*%
X161630000Y-97945000D03*
%TO.P,A1,5,+5V*%
%TO.N,unconnected-(A1-+5V-Pad5)*%
X161630000Y-100485000D03*
%TO.P,A1,6,GND*%
%TO.N,GND*%
X161630000Y-103025000D03*
%TO.P,A1,7,GND*%
%TO.N,unconnected-(A1-GND-Pad7)*%
X161630000Y-105565000D03*
%TO.P,A1,8,VIN*%
%TO.N,unconnected-(A1-VIN-Pad8)*%
X161630000Y-108105000D03*
%TO.P,A1,9,A0*%
%TO.N,ADC*%
X161630000Y-113185000D03*
%TO.P,A1,10,A1*%
%TO.N,unconnected-(A1-A1-Pad10)*%
X161630000Y-115725000D03*
%TO.P,A1,11,A2*%
%TO.N,DAC_OUT*%
X161630000Y-118265000D03*
%TO.P,A1,12,A3*%
%TO.N,unconnected-(A1-A3-Pad12)*%
X161630000Y-120805000D03*
%TO.P,A1,13,A4*%
%TO.N,unconnected-(A1-A4-Pad13)*%
X161630000Y-123345000D03*
%TO.P,A1,14,A5*%
%TO.N,N/C*%
X161630000Y-125885000D03*
%TO.P,A1,15,D0/RX*%
%TO.N,unconnected-(A1-D0{slash}RX-Pad15)*%
X113370000Y-125885000D03*
%TO.P,A1,16,D1/TX*%
%TO.N,unconnected-(A1-D1{slash}TX-Pad16)*%
X113370000Y-123345000D03*
%TO.P,A1,17,D2/SDA*%
%TO.N,unconnected-(A1-D2{slash}SDA-Pad17)*%
X113370000Y-120805000D03*
%TO.P,A1,18,D3/SCL*%
%TO.N,unconnected-(A1-D3{slash}SCL-Pad18)*%
X113370000Y-118265000D03*
%TO.P,A1,19,D4*%
%TO.N,unconnected-(A1-D4-Pad19)*%
X113370000Y-115725000D03*
%TO.P,A1,20,D5*%
%TO.N,unconnected-(A1-D5-Pad20)*%
X113370000Y-113185000D03*
%TO.P,A1,21,D6*%
%TO.N,unconnected-(A1-D6-Pad21)*%
X113370000Y-110645000D03*
%TO.P,A1,22,D7*%
%TO.N,unconnected-(A1-D7-Pad22)*%
X113370000Y-108105000D03*
%TO.P,A1,23,D8*%
%TO.N,unconnected-(A1-D8-Pad23)*%
X113370000Y-104045000D03*
%TO.P,A1,24,D9*%
%TO.N,INPUT*%
X113370000Y-101505000D03*
%TO.P,A1,25,D10*%
%TO.N,unconnected-(A1-D10-Pad25)*%
X113370000Y-98965000D03*
%TO.P,A1,26,D11*%
%TO.N,unconnected-(A1-D11-Pad26)*%
X113370000Y-96425000D03*
%TO.P,A1,27,D12*%
%TO.N,unconnected-(A1-D12-Pad27)*%
X113370000Y-93885000D03*
%TO.P,A1,28,D13*%
%TO.N,unconnected-(A1-D13-Pad28)*%
X113370000Y-91345000D03*
%TO.P,A1,29,GND*%
%TO.N,unconnected-(A1-GND-Pad29)*%
X113370000Y-88805000D03*
%TO.P,A1,30,AREF*%
%TO.N,unconnected-(A1-AREF-Pad30)*%
X113370000Y-86265000D03*
%TO.P,A1,31,SDA/D2*%
%TO.N,unconnected-(A1-SDA{slash}D2-Pad31)*%
X113370000Y-83725000D03*
%TO.P,A1,32,SCL/D3*%
%TO.N,unconnected-(A1-SCL{slash}D3-Pad32)*%
X113370000Y-81185000D03*
%TD*%
D14*
%TO.N,GND*%
X152500000Y-103000000D03*
X156000000Y-103025000D03*
%TO.N,INPUT*%
X133500000Y-106500000D03*
X136500000Y-108000000D03*
%TO.N,GND*%
X145500000Y-113000000D03*
X141500000Y-113500000D03*
%TO.N,ADC*%
X156500000Y-117000000D03*
X158500000Y-115000000D03*
%TD*%
D15*
%TO.N,GND*%
X141500000Y-113500000D02*
X145000000Y-113500000D01*
X145000000Y-113500000D02*
X145500000Y-113000000D01*
X152525000Y-103025000D02*
X152500000Y-103000000D01*
X156000000Y-103025000D02*
X152525000Y-103025000D01*
%TO.N,INPUT*%
X135000000Y-108000000D02*
X133500000Y-106500000D01*
X136500000Y-108000000D02*
X135000000Y-108000000D01*
%TO.N,ADC*%
X156500000Y-117000000D02*
X158500000Y-115000000D01*
%TD*%
M02*
