%TF.GenerationSoftware,KiCad,Pcbnew,8.0.5*%
%TF.CreationDate,2024-11-11T20:44:40+01:00*%
%TF.ProjectId,nowa_plytka,6e6f7761-5f70-46c7-9974-6b612e6b6963,rev?*%
%TF.SameCoordinates,Original*%
%TF.FileFunction,Drillmap*%
%TF.FilePolarity,Positive*%
%FSLAX45Y45*%
G04 Gerber Fmt 4.5, Leading zero omitted, Abs format (unit mm)*
G04 Created by KiCad (PCBNEW 8.0.5) date 2024-11-11 20:44:40*
%MOMM*%
%LPD*%
G01*
G04 APERTURE LIST*
%ADD10C,0.050000*%
%ADD11C,0.200000*%
G04 APERTURE END LIST*
D10*
X11550000Y-8250000D02*
X12300000Y-8800000D01*
X16350000Y-8800000D01*
X16350000Y-12800000D01*
X11250000Y-12800000D01*
X11100000Y-12650000D01*
X11100000Y-7950000D01*
X11550000Y-7950000D01*
X11550000Y-8250000D01*
D11*
X11358277Y-13113984D02*
X11358277Y-12913984D01*
X11358277Y-12913984D02*
X11405896Y-12913984D01*
X11405896Y-12913984D02*
X11434467Y-12923508D01*
X11434467Y-12923508D02*
X11453515Y-12942555D01*
X11453515Y-12942555D02*
X11463039Y-12961603D01*
X11463039Y-12961603D02*
X11472562Y-12999698D01*
X11472562Y-12999698D02*
X11472562Y-13028269D01*
X11472562Y-13028269D02*
X11463039Y-13066365D01*
X11463039Y-13066365D02*
X11453515Y-13085412D01*
X11453515Y-13085412D02*
X11434467Y-13104460D01*
X11434467Y-13104460D02*
X11405896Y-13113984D01*
X11405896Y-13113984D02*
X11358277Y-13113984D01*
X11558277Y-13113984D02*
X11558277Y-12980650D01*
X11558277Y-13018746D02*
X11567801Y-12999698D01*
X11567801Y-12999698D02*
X11577324Y-12990174D01*
X11577324Y-12990174D02*
X11596372Y-12980650D01*
X11596372Y-12980650D02*
X11615420Y-12980650D01*
X11682086Y-13113984D02*
X11682086Y-12980650D01*
X11682086Y-12913984D02*
X11672562Y-12923508D01*
X11672562Y-12923508D02*
X11682086Y-12933031D01*
X11682086Y-12933031D02*
X11691610Y-12923508D01*
X11691610Y-12923508D02*
X11682086Y-12913984D01*
X11682086Y-12913984D02*
X11682086Y-12933031D01*
X11805896Y-13113984D02*
X11786848Y-13104460D01*
X11786848Y-13104460D02*
X11777324Y-13085412D01*
X11777324Y-13085412D02*
X11777324Y-12913984D01*
X11910658Y-13113984D02*
X11891610Y-13104460D01*
X11891610Y-13104460D02*
X11882086Y-13085412D01*
X11882086Y-13085412D02*
X11882086Y-12913984D01*
X12139229Y-13113984D02*
X12139229Y-12913984D01*
X12139229Y-12913984D02*
X12205896Y-13056841D01*
X12205896Y-13056841D02*
X12272562Y-12913984D01*
X12272562Y-12913984D02*
X12272562Y-13113984D01*
X12453515Y-13113984D02*
X12453515Y-13009222D01*
X12453515Y-13009222D02*
X12443991Y-12990174D01*
X12443991Y-12990174D02*
X12424943Y-12980650D01*
X12424943Y-12980650D02*
X12386848Y-12980650D01*
X12386848Y-12980650D02*
X12367801Y-12990174D01*
X12453515Y-13104460D02*
X12434467Y-13113984D01*
X12434467Y-13113984D02*
X12386848Y-13113984D01*
X12386848Y-13113984D02*
X12367801Y-13104460D01*
X12367801Y-13104460D02*
X12358277Y-13085412D01*
X12358277Y-13085412D02*
X12358277Y-13066365D01*
X12358277Y-13066365D02*
X12367801Y-13047317D01*
X12367801Y-13047317D02*
X12386848Y-13037793D01*
X12386848Y-13037793D02*
X12434467Y-13037793D01*
X12434467Y-13037793D02*
X12453515Y-13028269D01*
X12548753Y-12980650D02*
X12548753Y-13180650D01*
X12548753Y-12990174D02*
X12567801Y-12980650D01*
X12567801Y-12980650D02*
X12605896Y-12980650D01*
X12605896Y-12980650D02*
X12624943Y-12990174D01*
X12624943Y-12990174D02*
X12634467Y-12999698D01*
X12634467Y-12999698D02*
X12643991Y-13018746D01*
X12643991Y-13018746D02*
X12643991Y-13075888D01*
X12643991Y-13075888D02*
X12634467Y-13094936D01*
X12634467Y-13094936D02*
X12624943Y-13104460D01*
X12624943Y-13104460D02*
X12605896Y-13113984D01*
X12605896Y-13113984D02*
X12567801Y-13113984D01*
X12567801Y-13113984D02*
X12548753Y-13104460D01*
X12729705Y-13094936D02*
X12739229Y-13104460D01*
X12739229Y-13104460D02*
X12729705Y-13113984D01*
X12729705Y-13113984D02*
X12720182Y-13104460D01*
X12720182Y-13104460D02*
X12729705Y-13094936D01*
X12729705Y-13094936D02*
X12729705Y-13113984D01*
X12729705Y-12990174D02*
X12739229Y-12999698D01*
X12739229Y-12999698D02*
X12729705Y-13009222D01*
X12729705Y-13009222D02*
X12720182Y-12999698D01*
X12720182Y-12999698D02*
X12729705Y-12990174D01*
X12729705Y-12990174D02*
X12729705Y-13009222D01*
M02*
