M48
; DRILL file {KiCad 8.0.5} date 2024-11-11T20:44:39+0100
; FORMAT={-:-/ absolute / inch / decimal}
; #@! TF.CreationDate,2024-11-11T20:44:39+01:00
; #@! TF.GenerationSoftware,Kicad,Pcbnew,8.0.5
; #@! TF.FileFunction,Plated,1,2,PTH
FMAT,2
INCH
; #@! TA.AperFunction,Plated,PTH,ViaDrill
T1C0.0118
; #@! TA.AperFunction,Plated,PTH,ComponentDrill
T2C0.0394
%
G90
G05
T1
X5.2559Y-4.1929
X5.374Y-4.252
X5.5709Y-4.4685
X5.7283Y-4.4488
X6.0039Y-4.0551
X6.1417Y-4.0561
X6.1614Y-4.6063
X6.2402Y-4.5276
T2
X4.4634Y-3.1963
X4.4634Y-3.2963
X4.4634Y-3.3963
X4.4634Y-3.4963
X4.4634Y-3.5963
X4.4634Y-3.6963
X4.4634Y-3.7963
X4.4634Y-3.8963
X4.4634Y-3.9963
X4.4634Y-4.0963
X4.4634Y-4.2561
X4.4634Y-4.3561
X4.4634Y-4.4561
X4.4634Y-4.5561
X4.4634Y-4.6561
X4.4634Y-4.7561
X4.4634Y-4.8561
X4.4634Y-4.9561
X5.1543Y-3.7402
X5.2543Y-3.7402
X5.3543Y-3.7402
X5.3543Y-4.0053
X5.3543Y-4.1053
X5.8858Y-4.8228
X5.9858Y-4.8228
X6.0858Y-4.8228
X6.3634Y-3.5561
X6.3634Y-3.6561
X6.3634Y-3.7561
X6.3634Y-3.8561
X6.3634Y-3.9561
X6.3634Y-4.0561
X6.3634Y-4.1561
X6.3634Y-4.2561
X6.3634Y-4.4561
X6.3634Y-4.5561
X6.3634Y-4.6561
X6.3634Y-4.7561
X6.3634Y-4.8561
X6.3634Y-4.9561
M30
